<?xml version="1.0" encoding="UTF-8"?>
<svg id="Layer_2" xmlns="http://www.w3.org/2000/svg" viewBox="0 0 977.49 510.12">
  <defs>
    <style>
      .cls-1 {
        fill: #fff;
      }
    </style>
  </defs>
  <g id="Layer_1-2" data-name="Layer_1">
    <g>
      <path class="cls-1" d="M488.97.17c73.44-.42,145.97,7.49,217.18,25.93,50.06,12.96,98.29,30.72,143.3,56.44,37.65,21.51,71.76,47.4,97.37,83.03,21.06,29.29,32.7,61.72,30.38,98.27-1.91,30.01-13.24,56.6-30.73,80.65-29.12,40.05-68.38,67.81-111.58,90.48-57.17,30.01-118.3,48.36-181.51,60.24-37.37,7.02-75.06,11.64-113.06,13.26-19.13.82-38.29,1.82-57.43,1.63-84.61-.81-167.79-11.61-248.65-37.37-54-17.2-105.14-40.34-150.43-75.04-25.08-19.21-47.09-41.39-62.87-69.01-24.49-42.87-28.08-87.17-7.62-132.71,15.59-34.68,40.94-61.26,70.58-84.11,37.98-29.28,80.53-50.05,125.37-66.46,58.87-21.55,119.77-34.2,181.96-40.74,22.66-2.38,45.5-3.24,68.28-4.42,9.8-.51,19.64-.09,29.46-.09ZM483.96,492.2c76.19.11,147.53-8.17,214.74-24.91,53.41-13.3,104.75-32.02,152.15-60.47,30.67-18.41,58.49-40.24,80.05-69.18,37.68-50.57,39.53-106.96,5.14-158.62-15.33-23.04-35.18-41.72-57.39-57.98-41.72-30.55-88.32-51.21-137.3-66.83-70.29-22.42-142.54-33.32-216.13-36.18-79.5-3.09-158.14,3.25-235.7,21.33-54.74,12.76-107.47,31.03-156.42,59.13-33.36,19.15-63.63,42.11-86.94,73.24-38.71,51.72-39.54,110.04-2.3,162.74,14.97,21.18,33.71,38.62,54.54,53.87,41.03,30.05,86.8,50.52,134.92,66.06,82.88,26.76,168.2,37.29,250.61,37.79Z"/>
      <path class="cls-1" d="M481.04,482.39c-76.03-.39-158.28-10.19-238.33-35.1-46.66-14.51-91.23-33.61-131.41-61.92-20.96-14.77-39.9-31.71-55.13-52.52-37.02-50.58-36.49-107.71,1.45-157.66,21.34-28.1,48.69-49.13,78.85-66.73,49.81-29.06,103.72-47.44,159.71-60.08,77.68-17.54,156.4-23.45,235.83-19.71,74.87,3.53,148.38,15.16,219.48,39.65,46.08,15.87,89.84,36.31,128.32,66.82,17.48,13.86,33.02,29.55,45.45,48.16,31.55,47.22,30.71,100.33-2.21,146.66-21.89,30.8-50.99,53.33-83.25,72.07-49.12,28.53-102.25,46.63-157.39,59.24-63.77,14.59-128.46,20.96-201.36,21.1ZM488.37,471.92c29.92-1.83,59.89-3.03,89.75-5.61,54.43-4.71,107.77-15.35,159.79-32.17,46.06-14.89,89.86-34.51,128.9-63.62,21-15.65,39.51-33.76,53.03-56.48,14.49-24.35,20.68-50.39,15.34-78.57-4.66-24.61-16.92-45.38-33.29-63.91-24.9-28.17-55.66-48.48-88.92-65.22-63.49-31.96-131.37-49.14-201.34-58.98-55.26-7.77-110.8-9.75-166.53-7.23-56.58,2.55-112.41,10.2-167.27,24.39-49.87,12.9-97.87,30.56-142.02,57.6-27.79,17.02-53.09,37.01-72,63.95-26.82,38.21-32.12,78.6-10.38,120.99,13.53,26.39,34.17,46.65,57.69,64.08,38.15,28.27,80.83,47.57,125.73,62.23,81.7,26.67,165.83,37.19,251.53,38.57Z"/>
      <path class="cls-1" d="M457.18,108.27c9.42,0,19.39,0,29.36.01,1.3,0,2.6.16,4.3.27,2.36,19.89,4.71,39.62,7.05,59.35.41.03.83.06,1.24.1,6.9-19.52,13.8-39.03,20.98-59.34h28.63c-13.6,38.54-27.17,76.95-40.65,115.4-1.01,2.88-2.28,4.27-5.61,4.17-8.65-.25-17.31-.09-26.57-.09-2.61-20.99-5.19-41.75-7.76-62.51-7.69,20.4-16.3,40.41-22.03,62.2h-29.6c1.2-3.06,2.47-6.01,3.53-9.04,11.75-33.63,23.49-67.26,35.13-100.92,1.01-2.91,1.29-6.07,2.01-9.62Z"/>
      <path class="cls-1" d="M755.62,330.15c8.47,15.52,16.55,30.32,24.57,45.01h-36.83c-6.34-13.51-12.65-26.96-19.6-41.77-4.99,14.58-9.51,27.78-14.26,41.66h-34.43c13.67-33.88,24.43-69.1,36.78-103.73,1.72-4.83,1.9-10.2,2.93-16.07,11.66,0,24.6-.1,37.55.04,6.14.07,12.38-.01,18.39,1.05,17.23,3.04,25.43,13.86,24.49,31.37-1.08,20.08-13.68,36.95-30.76,41.04-2.55.61-5.19.83-8.83,1.4ZM732.67,307.54c5.67-.46,10.2-.44,14.55-1.28,7.08-1.37,12.2-6.65,12.64-13.63.17-2.66-1.49-7.3-3.29-7.84-4.77-1.44-10.06-1.18-15.15-1.44-.45-.02-1.19,1.07-1.42,1.77-2.36,7.06-4.64,14.14-7.34,22.43Z"/>
      <path class="cls-1" d="M293.72,255.51c17.6,0,36.2-1.47,54.46.37,23.7,2.39,33.22,22.66,23.6,46.47-6.55,16.21-17.72,24.77-36.48,27.4,8.21,15.2,16.28,30.12,24.35,45.06h-35.44c-6.52-13.44-13.02-26.83-20.24-41.69-5.25,14.65-10,27.91-14.93,41.68h-33.68c3.11-8.3,6.48-16.65,9.37-25.17,9.03-26.62,17.98-53.28,26.69-80,1.44-4.42,1.54-9.27,2.28-14.12ZM312.54,306.34c4.75,0,8.61.37,12.36-.08,6.9-.83,12.36-4.2,14.83-10.99,1.49-4.09,1.94-9.16-2.79-10.88-4.8-1.75-10.34-1.52-15.58-1.95-.55-.05-1.51,1.22-1.79,2.04-2.35,7.08-4.6,14.2-7.04,21.85Z"/>
      <path class="cls-1" d="M532.65,228.37c5.58-15.54,11-30.53,16.33-45.55,6.12-17.25,12.36-34.46,18.15-51.83,2.37-7.12,3.7-14.58,5.82-23.21,16.22.55,34.1,0,51.68,2.05,18.87,2.21,29.06,15.25,29.85,34.29,1.92,46.56-34.04,84.18-80.54,84.24-13.82.02-27.63,0-41.29,0ZM575.56,200.39c12.4,1.55,22.26-2.05,29.44-11.7,8.35-11.22,12.71-24.11,13.97-37.94.3-3.33-.47-7.06-1.78-10.17-3.1-7.36-9.91-6.56-16.29-6.59-5.15-.03-4.36,4.45-5.31,7.14-6.22,17.57-12.12,35.25-18.11,52.91-.68,2-1.23,4.03-1.93,6.36Z"/>
      <path class="cls-1" d="M490.35,303.06c-.23,29.62-19.68,60.13-45.37,70.64-34.21,13.99-65.18-6.1-65.32-42.97-.08-22.04,7.2-41.88,22.02-58.49,11.93-13.37,27.16-20.04,45-20.61,22.19-.71,36.97,11.1,41.34,33.14,1.19,6.02,1.58,12.19,2.33,18.3ZM456.61,298.94c-.41-2.49-.6-6.2-1.66-9.64-2.54-8.23-11.09-12.12-18.79-8.19-3.71,1.9-7.34,4.85-9.78,8.21-9.57,13.19-12.69,28.34-11.8,44.39.14,2.61.87,5.28,1.81,7.74,2.47,6.45,7.88,9.36,14.74,8.26,7.04-1.13,11.53-5.71,14.93-11.45,6.95-11.73,9.45-24.73,10.55-39.32Z"/>
      <path class="cls-1" d="M295.94,227.99c23.58-36.5,46.92-72.53,70.1-108.67,1.98-3.09,2.87-6.87,4.5-10.88h31.89c1.74,39.77,3.49,79.48,5.24,119.49h-32.27c.31-5.2.62-10.52.98-16.62h-24.53c-14.93,0-17.49,1.99-21.27,16.68h-34.64ZM375.09,184.14v-33.06c-.34-.12-.68-.23-1.02-.35-6.42,10.93-12.84,21.86-19.62,33.41h20.65Z"/>
      <path class="cls-1" d="M582.37,375.38c11.25-21.85,42.05-110.61,41.65-119.87h74.46c-3.2,9.05-6.28,17.78-9.02,25.52-8.81-.17-17-.42-25.2-.47-12.89-.08-12.89-.02-17.13,12.36-.96,2.81-1.91,5.63-3.03,8.92h31.57c-3.06,9.01-6.17,18.16-9.22,27.12-9.93,0-19.41.1-28.88-.06-2.82-.05-4.19.92-5.02,3.58-1.59,5.06-3.49,10.02-5.6,15.95h40.85c-2.64,8.21-5.26,16.59-8.1,24.9-.31.9-1.87,1.96-2.85,1.97-24.62.11-49.25.09-74.48.09Z"/>
      <path class="cls-1" d="M502.25,375.39v-119.86h34.35c-.44,5.18-1.19,10.27-1.23,15.37-.15,18.47-.06,36.94-.06,56.4,1.31-1.68,2.23-2.68,2.96-3.82,12.65-19.79,25.32-39.55,37.82-59.43,1.47-2.34,1.89-5.34,2.97-8.58h38.8c-7.72,9.9-15.82,19.69-23.27,29.96-19.76,27.23-39.56,54.44-58.58,82.19-4.39,6.4-8.67,8.6-15.9,7.88-5.93-.59-11.96-.12-17.85-.12Z"/>
      <path class="cls-1" d="M215.26,228.24c4.15-11.45,8.16-22.19,11.94-33.01,8.74-24.98,17.44-49.97,25.96-75.03,1.23-3.63,1.37-7.63,2.08-11.89h35.92c-11.17,30.8-22.35,61.66-33.76,93.13h37.37c-3.04,8.69-5.82,16.84-8.83,24.9-.33.89-1.97,1.82-3.01,1.83-22.61.1-45.22.08-67.67.08Z"/>
      <path class="cls-1" d="M199.64,298.3h44.93c-2.93,8.77-5.58,16.94-8.46,25.03-.31.88-1.92,1.84-2.94,1.84-23.61.1-47.23.08-71.57.08,3.05-9.49,5.86-18.48,8.89-27.4.34-.99,1.85-1.85,3-2.25,26.24-9.06,52.51-18.04,78.78-27.02.44-.15.95-.07,1.43-.1-.08,7.37-1.63,9.64-8.17,12.01-13.75,4.98-27.51,9.95-41.26,14.95-1.64.6-3.23,1.33-4.84,2,.07.29.13.58.2.86Z"/>
      <path class="cls-1" d="M760.88,154.32c-3.09,9.53-5.92,18.53-9,27.44-.33.97-1.92,1.76-3.08,2.16-26.11,9.01-52.25,17.96-78.39,26.9-.57.19-1.2.19-2.25.34,1.1-6.08,2.51-10.58,9.32-12.67,13.51-4.14,26.68-9.4,39.98-14.21,1.82-.66,3.61-1.43,5.3-2.95h-44.92c3-9.02,5.71-17.33,8.62-25.58.25-.72,1.82-1.37,2.78-1.38,23.63-.08,47.27-.06,71.63-.06Z"/>
    </g>
  </g>
</svg>