<?xml version="1.0" encoding="UTF-8"?>
<svg id="Layer_2" xmlns="http://www.w3.org/2000/svg" viewBox="0 0 640 413.8">
  <defs>
    <style>
      .cls-1 {
        fill: #fff;
      }
    </style>
  </defs>
  <g id="Layer_1-2" data-name="Layer_1">
    <path class="cls-1" d="M0,217.9c0-7.33,0-14.67,0-22,.28-.77.74-1.53.82-2.32,3.35-33.94,18.2-62.65,40.25-87.99,24.92-28.64,55.69-49.41,89.76-65.52C181.77,15.99,235.72,4.07,291.78.86c56.39-3.23,111.75,2.58,165.78,19.24,46.51,14.33,89.35,35.61,125.39,69,23.87,22.11,42.34,47.89,51.38,79.55,2.54,8.9,3.82,18.16,5.67,27.26v22c-.28.77-.74,1.53-.82,2.32-3.32,33.76-18.04,62.36-39.92,87.61-24.97,28.83-55.87,49.72-90.09,65.89-50.94,24.08-104.89,36.01-160.96,39.22-56.39,3.23-111.75-2.58-165.78-19.24-46.51-14.33-89.35-35.61-125.39-69-23.87-22.11-42.34-47.89-51.38-79.55C3.13,236.26,1.86,226.99,0,217.9ZM82.81,103.71c-1.64,1.65-2.63,2.5-3.44,3.49-40.56,49.79-44.67,114.58-10.45,168.97,20.98,33.34,50.64,57.13,84.96,75.48,39.27,21,81.46,32.4,125.57,37.17,4.99.54,10.01.79,15.23,1.18-3.03-3.3-5.64-6.06-8.15-8.9-15.24-17.24-23.9-37.88-30.52-59.51-11.16-36.48-15.03-73.96-14.73-111.95.03-3.85-.91-5.19-4.96-6.06-19.34-4.14-38.79-8.01-57.75-13.55-26.68-7.8-51.94-19.05-73.07-37.77-14.1-12.5-23.98-27.27-22.68-48.55ZM557.78,104.58c.56,14.23-4.37,26.29-13,36.98-11.32,14.04-26.01,23.77-41.83,31.87-31.14,15.94-64.58,24.61-98.9,30.12-4.8.77-5.34,2.67-5.31,6.73.21,40.02-4.04,79.46-16.77,117.62-7.66,22.96-17.75,44.58-36.41,61.04-.1.09.13.55.21.85,1.5,0,3,.11,4.48-.02,35.54-2.92,70.15-10.08,103.37-23.19,40.09-15.82,76.09-37.89,103.73-71.59,33.72-41.09,46.06-87.14,29.75-139.06-6-19.11-16.07-36.04-29.33-51.37ZM394.94,152.7c.45,0,1.13.13,1.74-.02,16.49-3.91,33.16-7.2,49.4-11.96,16.99-4.98,33.19-12.18,46.55-24.31,16.65-15.11,16.72-33.08-.55-47.43-7.71-6.41-16.59-11.8-25.67-16.1-26.27-12.45-54.51-18.23-83.14-21.83-50.39-6.35-100.69-5.49-150.69,3.87-24.11,4.52-47.66,10.98-69.29,23.03-8.79,4.89-16.94,10.65-22.82,19.04-7.31,10.42-7.56,21.36.1,31.5,3.66,4.84,7.97,9.81,13.11,12.78,11.62,6.7,23.6,13,36.04,17.96,17.77,7.1,36.57,10.77,55.23,13.6.43-.47.61-.58.64-.71.84-4.4,1.63-8.81,2.51-13.2,5.27-26.57,12.75-52.37,26.87-75.8,5.71-9.49,12.48-18.1,21.47-24.75,15.18-11.21,32.24-11.55,47.03.16,6.56,5.19,12.43,11.63,17.37,18.42,12.3,16.89,19.59,36.25,24.97,56.27,3.48,12.96,6.09,26.16,9.15,39.48ZM271.08,209.14c-.03.4-.18,1.37-.15,2.33.86,25.92,4.44,51.36,13.63,75.76,4.07,10.8,9.17,21.08,17.5,29.36,11.42,11.36,25.07,11.75,35.82-.3,6.09-6.83,11.15-14.98,15.01-23.31,9.4-20.29,13.13-42.13,15.14-64.26.61-6.73.85-13.49,1.21-19.59h-98.16ZM366.07,156.45c-1.47-7.12-2.57-13.49-4.11-19.75-3.47-14.1-8.01-27.82-15.88-40.18-1.78-2.8-3.77-5.51-5.95-8-12.55-14.36-27.8-14.64-40.07-.13-16.43,19.43-21.41,43.38-26.07,68.08,30.86,2.72,61.01,2.75,92.09-.02Z"/>
  </g>
</svg>