<?xml version="1.0" encoding="UTF-8"?>
<svg id="Layer_2" xmlns="http://www.w3.org/2000/svg" viewBox="0 0 1288.28 613">
  <defs>
    <style>
      .cls-1, .cls-2 {
        fill: #fff;
      }

      .cls-3 {
        font-size: 96px;
      }

      .cls-3, .cls-2, .cls-4 {
        font-family: Bahnschrift-Bold, Bahnschrift;
        font-variation-settings: 'wght' 700, 'wdth' 100;
        font-weight: 700;
      }

      .cls-5 {
        fill: #e69907;
      }

      .cls-6 {
        fill: #073799;
      }

      .cls-2 {
        font-size: 118px;
      }

      .cls-4 {
        font-size: 50px;
      }
    </style>
  </defs>
  <g id="Layer_1-2" data-name="Layer_1">
    <g>
      <g>
        <g>
          <g>
            <rect class="cls-6" x="108.25" y="171.5" width="1072" height="270"/>
            <path d="M1179.75,172v269H108.75V172h1071M1180.75,171H107.75v271h1073V171h0Z"/>
          </g>
          <text class="cls-2" transform="translate(602.78 338.74)"><tspan x="0" y="0">N</tspan></text>
        </g>
        <g>
          <g>
            <rect class="cls-1" x="870.25" y=".5" width="310" height="170"/>
            <path d="M1179.75,1v169h-309V1h309M1180.75,0h-311v171h311V0h0Z"/>
          </g>
          <text class="cls-3" transform="translate(998.58 114.12)"><tspan x="0" y="0">L</tspan></text>
        </g>
        <g>
          <g>
            <rect class="cls-5" x="108.25" y=".5" width="310" height="170"/>
            <path d="M417.75,1v169H108.75V1h309M418.75,0H107.75v171h311V0h0Z"/>
          </g>
          <text class="cls-4" transform="translate(144.63 98.46)"><tspan x="0" y="0">LOW LOCK</tspan></text>
        </g>
        <g>
          <g>
            <rect class="cls-5" x="108.25" y="442.5" width="310" height="170"/>
            <path d="M417.75,443v169H108.75v-169h309M418.75,442H107.75v171h311v-171h0Z"/>
          </g>
          <text class="cls-4" transform="translate(139.04 541.46)"><tspan x="0" y="0">HIGH LOCK</tspan></text>
        </g>
        <g>
          <g>
            <rect class="cls-1" x="870.25" y="442.5" width="310" height="170"/>
            <path d="M1179.75,443v169h-309v-169h309M1180.75,442h-311v171h311v-171h0Z"/>
          </g>
          <text class="cls-3" transform="translate(993.51 565.12)"><tspan x="0" y="0">H</tspan></text>
        </g>
      </g>
      <path d="M475.58,81.5c-1.37,1.35-1.39,3.55-.05,4.92l21.92,22.37c1.35,1.37,3.55,1.39,4.92.05,1.37-1.35,1.39-3.55.05-4.92l-19.49-19.88,19.88-19.49c1.37-1.35,1.39-3.55.05-4.92-1.35-1.37-3.55-1.39-4.92-.05l-22.37,21.92ZM826.7,89.95c1.37-1.35,1.4-3.55.05-4.92l-21.92-22.37c-1.34-1.37-3.55-1.39-4.92-.05-1.37,1.35-1.4,3.55-.05,4.92l19.49,19.88-19.88,19.49c-1.37,1.35-1.4,3.55-.05,4.92,1.35,1.37,3.55,1.39,4.92.05l22.37-21.92ZM478.02,83.99l-.03,3.48,346.25,3.48.03-3.48.03-3.48-346.25-3.48-.03,3.48Z"/>
      <path d="M477.58,533.5c-1.37,1.35-1.39,3.55-.05,4.92l21.92,22.37c1.35,1.37,3.55,1.39,4.92.05,1.37-1.35,1.39-3.55.05-4.92l-19.49-19.88,19.88-19.49c1.37-1.35,1.39-3.55.05-4.92-1.35-1.37-3.55-1.39-4.92-.05l-22.37,21.92ZM828.7,541.95c1.37-1.35,1.4-3.55.05-4.92l-21.92-22.37c-1.34-1.37-3.55-1.39-4.92-.05-1.37,1.35-1.4,3.55-.05,4.92l19.49,19.88-19.88,19.49c-1.37,1.35-1.4,3.55-.05,4.92,1.35,1.37,3.55,1.39,4.92.05l22.37-21.92ZM480.02,535.99l-.03,3.48,346.25,3.48.03-3.48.03-3.48-346.25-3.48-.03,3.48Z"/>
      <path d="M1256.92,482.29c1.35,1.37,3.55,1.39,4.92.05l22.37-21.92c1.37-1.35,1.39-3.55.05-4.92-1.35-1.37-3.55-1.39-4.92-.05l-19.88,19.49-19.49-19.88c-1.35-1.37-3.55-1.39-4.92-.05-1.37,1.35-1.39,3.55-.05,4.92l21.92,22.37ZM1265.37,131.17c-1.35-1.37-3.55-1.4-4.92-.05l-22.37,21.92c-1.37,1.34-1.39,3.55-.05,4.92,1.35,1.37,3.55,1.4,4.92.05l19.88-19.49,19.49,19.88c1.35,1.37,3.55,1.4,4.92.05,1.37-1.35,1.39-3.55.05-4.92l-21.92-22.37ZM1259.4,479.85l3.48.03,3.48-346.25-3.48-.03-3.48-.03-3.48,346.25,3.48.03Z"/>
      <path d="M22.92,482.29c1.35,1.37,3.55,1.39,4.92.05l22.37-21.92c1.37-1.35,1.39-3.55.05-4.92-1.35-1.37-3.55-1.39-4.92-.05l-19.88,19.49-19.49-19.88c-1.35-1.37-3.55-1.39-4.92-.05-1.37,1.35-1.39,3.55-.05,4.92l21.92,22.37ZM31.37,131.17c-1.35-1.37-3.55-1.4-4.92-.05l-22.37,21.92c-1.37,1.34-1.39,3.55-.05,4.92,1.35,1.37,3.55,1.4,4.92.05l19.88-19.49,19.49,19.88c1.35,1.37,3.55,1.4,4.92.05,1.37-1.35,1.39-3.55.05-4.92l-21.92-22.37ZM25.4,479.85l3.48.03,3.48-346.25-3.48-.03-3.48-.03-3.48,346.25,3.48.03Z"/>
    </g>
  </g>
</svg>