<svg width="408" height="162" viewBox="0 0 408 162" fill="none" xmlns="http://www.w3.org/2000/svg">
<g filter="url(#filter0_d_105_4699)">
<rect x="16" y="30" width="362" height="94" rx="8" fill="#073799"/>
<path d="M36.2433 49.716H40.0793V56.856H46.7433V49.716H50.5793V68H46.7433V60.216H40.0793V68H36.2433V49.716ZM55.0011 49.716H58.8371V68H55.0011V49.716ZM71.2109 68.336C69.5122 68.336 67.9909 67.972 66.6469 67.244C65.3215 66.516 64.2762 65.452 63.5109 64.052C62.7455 62.6333 62.3629 60.9347 62.3629 58.956C62.3629 56.996 62.7549 55.2973 63.5389 53.86C64.3229 52.404 65.3775 51.2933 66.7029 50.528C68.0469 49.7627 69.5402 49.38 71.1829 49.38C73.4042 49.38 75.2989 50.164 76.8669 51.732L74.8509 54.196C74.3282 53.7107 73.7869 53.3467 73.2269 53.104C72.6855 52.8427 72.0509 52.712 71.3229 52.712C69.8109 52.712 68.5975 53.2627 67.6829 54.364C66.7682 55.4467 66.3109 56.9307 66.3109 58.816C66.3109 60.7947 66.7589 62.3253 67.6549 63.408C68.5509 64.472 69.8669 65.004 71.6029 65.004C72.0135 65.004 72.4149 64.948 72.8069 64.836C73.1989 64.724 73.5162 64.5747 73.7589 64.388V60.972H70.5949V57.836H77.1749V66.124C76.5029 66.7773 75.6442 67.3093 74.5989 67.72C73.5535 68.1307 72.4242 68.336 71.2109 68.336ZM81.0323 49.716H84.8683V56.856H91.5323V49.716H95.3683V68H91.5323V60.216H84.8683V68H81.0323V49.716ZM117.548 64.976V68H111.64H104.248V64.976H111.64V57.08C111.64 55.7173 111.005 55.036 109.736 55.036H104.248V52.012H110.856C112.349 52.012 113.525 52.4413 114.384 53.3C115.242 54.14 115.672 55.4653 115.672 57.276V64.976H117.548ZM128.915 61.448L132.611 68H128.551H119.227V64.976H126.843L119.535 52.012H123.595L126.759 57.64L129.055 52.012H133.031L128.915 61.448ZM150.911 60.02C150.911 62.6147 150.305 64.6587 149.091 66.152C147.897 67.6267 146.207 68.364 144.023 68.364C143.239 68.364 142.381 68.252 141.447 68.028L141.811 65.004C142.502 65.1533 143.081 65.228 143.547 65.228C144.817 65.228 145.722 64.808 146.263 63.968C146.805 63.1093 147.075 61.8493 147.075 60.188C147.075 58.34 146.814 57.0053 146.291 56.184C145.787 55.344 145.003 54.924 143.939 54.924C143.193 54.924 142.558 55.148 142.035 55.596C141.531 56.044 141.214 56.6507 141.083 57.416L139.347 68H135.315L137.247 57.22L135.007 52.012H139.207L140.327 55.204C140.719 54.0467 141.307 53.188 142.091 52.628C142.875 52.0493 143.771 51.76 144.779 51.76C146.777 51.76 148.298 52.4507 149.343 53.832C150.389 55.1947 150.911 57.2573 150.911 60.02ZM165.04 52.012V55.344L160 68H155.968L160.98 55.036H152.86V47.924H156.5V52.012H165.04ZM173.755 49.716H177.591V64.78H184.927V68H173.755V49.716ZM194.462 68.336C192.838 68.336 191.401 67.9533 190.15 67.188C188.918 66.4227 187.957 65.3213 187.266 63.884C186.575 62.428 186.23 60.7293 186.23 58.788C186.23 56.828 186.575 55.148 187.266 53.748C187.957 52.3293 188.918 51.2467 190.15 50.5C191.401 49.7533 192.838 49.38 194.462 49.38C196.086 49.38 197.514 49.7533 198.746 50.5C199.997 51.2467 200.958 52.3293 201.63 53.748C202.321 55.1667 202.666 56.8467 202.666 58.788C202.666 60.7293 202.321 62.428 201.63 63.884C200.958 65.3213 199.997 66.4227 198.746 67.188C197.514 67.9533 196.086 68.336 194.462 68.336ZM194.462 65.004C195.769 65.004 196.805 64.444 197.57 63.324C198.354 62.204 198.746 60.692 198.746 58.788C198.746 56.9027 198.354 55.4187 197.57 54.336C196.805 53.2533 195.769 52.712 194.462 52.712C193.137 52.712 192.091 53.2533 191.326 54.336C190.561 55.4 190.178 56.884 190.178 58.788C190.178 60.692 190.561 62.204 191.326 63.324C192.11 64.444 193.155 65.004 194.462 65.004ZM204.311 49.716H208.259L209.631 58.48L210.415 64.276H210.527L211.647 58.48L213.719 49.716H216.995L219.039 58.48L219.683 61.728L220.187 64.276H220.299C220.653 61.532 220.915 59.6 221.083 58.48L222.455 49.716H226.123L222.791 68H217.975L216.043 59.264C215.744 57.864 215.492 56.4547 215.287 55.036H215.175L214.951 56.324C214.727 57.6307 214.54 58.6107 214.391 59.264L212.515 68H207.783L204.311 49.716ZM246.501 64.976V68H240.593H233.201V64.976H240.593V57.08C240.593 55.7173 239.958 55.036 238.689 55.036H233.201V52.012H239.809C241.302 52.012 242.478 52.4413 243.337 53.3C244.195 54.14 244.625 55.4653 244.625 57.276V64.976H246.501ZM257.868 61.448L261.564 68H257.504H248.18V64.976H255.796L248.488 52.012H252.548L255.712 57.64L258.008 52.012H261.984L257.868 61.448ZM279.864 60.02C279.864 62.6147 279.258 64.6587 278.044 66.152C276.85 67.6267 275.16 68.364 272.976 68.364C272.192 68.364 271.334 68.252 270.4 68.028L270.764 65.004C271.455 65.1533 272.034 65.228 272.5 65.228C273.77 65.228 274.675 64.808 275.216 63.968C275.758 63.1093 276.028 61.8493 276.028 60.188C276.028 58.34 275.767 57.0053 275.244 56.184C274.74 55.344 273.956 54.924 272.892 54.924C272.146 54.924 271.511 55.148 270.988 55.596C270.484 56.044 270.167 56.6507 270.036 57.416L268.3 68H264.268L266.2 57.22L263.96 52.012H268.16L269.28 55.204C269.672 54.0467 270.26 53.188 271.044 52.628C271.828 52.0493 272.724 51.76 273.732 51.76C275.73 51.76 277.251 52.4507 278.296 53.832C279.342 55.1947 279.864 57.2573 279.864 60.02ZM297.829 60.02C297.829 62.6147 297.223 64.6587 296.009 66.152C294.815 67.6267 293.125 68.364 290.941 68.364C290.157 68.364 289.299 68.252 288.365 68.028L288.729 65.004C289.42 65.1533 289.999 65.228 290.465 65.228C291.735 65.228 292.64 64.808 293.181 63.968C293.723 63.1093 293.993 61.8493 293.993 60.188C293.993 58.34 293.732 57.0053 293.209 56.184C292.705 55.344 291.921 54.924 290.857 54.924C290.111 54.924 289.476 55.148 288.953 55.596C288.449 56.044 288.132 56.6507 288.001 57.416L286.265 68H282.233L284.165 57.22L281.925 52.012H286.125L287.245 55.204C287.637 54.0467 288.225 53.188 289.009 52.628C289.793 52.0493 290.689 51.76 291.697 51.76C293.695 51.76 295.216 52.4507 296.261 53.832C297.307 55.1947 297.829 57.2573 297.829 60.02ZM312.636 57.08C312.636 55.7173 312.01 55.036 310.76 55.036H305.3V52.012H311.852C313.345 52.012 314.521 52.4413 315.38 53.3C316.257 54.14 316.696 55.4653 316.696 57.276V68H312.636V57.08ZM332.552 64.976V68H326.644H319.252V64.976H326.644V57.08C326.644 55.7173 326.009 55.036 324.74 55.036H319.252V52.012H325.86C327.353 52.012 328.529 52.4413 329.388 53.3C330.246 54.14 330.676 55.4653 330.676 57.276V64.976H332.552ZM348.343 52.012C348.324 55.7267 348.175 58.536 347.895 60.44C347.633 62.3253 346.924 63.9213 345.767 65.228C344.609 66.516 342.743 67.412 340.167 67.916L334.175 69.092L333.615 65.928L338.067 65.088L334.847 52.012H338.879L341.707 64.192C342.547 63.7813 343.153 63.156 343.527 62.316C343.9 61.476 344.124 60.4587 344.199 59.264C344.292 58.0693 344.339 56.2587 344.339 53.832V52.012H348.343ZM360.219 57.08C360.219 55.7173 359.594 55.036 358.343 55.036H351.035V52.012H359.435C360.929 52.012 362.105 52.4413 362.963 53.3C363.841 54.14 364.279 55.4653 364.279 57.276V68H360.219V57.08ZM350.867 60.356L351.427 58.48H354.927V68H350.867V60.356ZM42.8457 91.012C44.339 91.012 45.515 91.4413 46.3737 92.3C47.251 93.14 47.6897 94.4653 47.6897 96.276V107H43.6297H34.8377H33.9977V91.012H38.0297H42.8457ZM43.6297 103.976V96.08C43.6297 94.7173 43.0043 94.036 41.7537 94.036H38.0297V103.976H43.6297ZM59.78 96.08C59.78 94.7173 59.1547 94.036 57.904 94.036H50.596V91.012H58.996C60.4893 91.012 61.6653 91.4413 62.524 92.3C63.4013 93.14 63.84 94.4653 63.84 96.276V107H59.78V96.08ZM50.428 99.356L50.988 97.48H54.488V107H50.428V99.356ZM82.0188 99.02C82.0188 101.615 81.4121 103.659 80.1988 105.152C79.0041 106.627 77.3148 107.364 75.1308 107.364C74.3468 107.364 73.4881 107.252 72.5548 107.028L72.9188 104.004C73.6094 104.153 74.1881 104.228 74.6548 104.228C75.9241 104.228 76.8294 103.808 77.3708 102.968C77.9121 102.109 78.1828 100.849 78.1828 99.188C78.1828 97.34 77.9214 96.0053 77.3988 95.184C76.8948 94.344 76.1108 93.924 75.0468 93.924C74.3001 93.924 73.6654 94.148 73.1428 94.596C72.6388 95.044 72.3214 95.6507 72.1908 96.416L70.4548 107H66.4228L68.3548 96.22L66.1148 91.012H70.3148L71.4348 94.204C71.8268 93.0467 72.4148 92.188 73.1988 91.628C73.9828 91.0493 74.8788 90.76 75.8868 90.76C77.8841 90.76 79.4054 91.4507 80.4508 92.832C81.4961 94.1947 82.0188 96.2573 82.0188 99.02ZM96.0691 97.312C96.0691 96.6027 96.1344 95.968 96.2651 95.408C96.4144 94.8293 96.6104 94.372 96.8531 94.036H89.6851V91.012H102.817V94.036H100.633C100.278 94.8387 100.101 95.9307 100.101 97.312V107H96.0691V97.312ZM114.269 91.012C115.762 91.012 116.938 91.46 117.797 92.356C118.674 93.252 119.113 94.6053 119.113 96.416V107H115.053V96.22C115.053 94.764 114.428 94.036 113.177 94.036H109.425V107H105.393V92.832V91.012H114.269ZM132.713 107L127.449 98.852L124.957 107H121.121L124.229 97.396L125.097 95.24L122.493 91.012H126.553L128.793 94.652L130.809 97.704L131.565 95.156L132.685 91.012H136.521L133.161 101.204L137.025 107H132.713ZM156.468 91.012V94.344L151.428 107H147.396L152.408 94.036H144.288V86.924H147.928V91.012H156.468ZM172.317 91.012C172.299 94.7267 172.149 97.536 171.869 99.44C171.608 101.325 170.899 102.921 169.741 104.228C168.584 105.516 166.717 106.412 164.141 106.916L158.149 108.092L157.589 104.928L162.041 104.088L158.821 91.012H162.853L165.681 103.192C166.521 102.781 167.128 102.156 167.501 101.316C167.875 100.476 168.099 99.4587 168.173 98.264C168.267 97.0693 168.313 95.2587 168.313 92.832V91.012H172.317ZM189.8 96.08C189.8 94.7173 189.174 94.036 187.924 94.036H180.616V91.012H189.016C190.509 91.012 191.685 91.4413 192.544 92.3C193.421 93.14 193.86 94.4653 193.86 96.276V107H189.8V96.08ZM180.448 99.356L181.008 97.48H184.508V107H180.448V99.356ZM205.682 100.448L209.378 107H205.318H195.994V103.976H203.61L196.302 91.012H200.362L203.526 96.64L205.822 91.012H209.798L205.682 100.448ZM212.503 94.288L212.167 91.012H216.199L216.535 94.288V98.656L216.507 100.42L212.503 101.12V94.288ZM228.429 91.012C229.922 91.012 231.098 91.46 231.957 92.356C232.834 93.252 233.273 94.6053 233.273 96.416V107H229.213V96.22C229.213 94.764 228.588 94.036 227.337 94.036H223.585V107H219.553V92.832V91.012H228.429ZM247.741 91.012V94.344L242.701 107H238.669L243.681 94.036H235.561V86.924H239.201V91.012H247.741ZM254.748 104.732C255.457 104.657 255.989 104.517 256.344 104.312C256.699 104.107 256.941 103.827 257.072 103.472C257.203 103.099 257.259 102.576 257.24 101.904V91.012H265.724C267.217 91.012 268.393 91.4413 269.252 92.3C270.111 93.14 270.54 94.4653 270.54 96.276V107H266.508V96.08C266.508 94.7173 265.873 94.036 264.604 94.036H261.3V101.372C261.3 102.791 261.076 103.92 260.628 104.76C260.199 105.6 259.536 106.235 258.64 106.664C257.763 107.075 256.577 107.345 255.084 107.476L254.748 104.732ZM273.726 94.288L273.39 91.012H277.422L277.758 94.288V107H273.726V94.288ZM294.216 91.012C294.197 94.7267 294.048 97.536 293.768 99.44C293.506 101.325 292.797 102.921 291.64 104.228C290.482 105.516 288.616 106.412 286.04 106.916L280.048 108.092L279.488 104.928L283.94 104.088L280.72 91.012H284.752L287.58 103.192C288.42 102.781 289.026 102.156 289.4 101.316C289.773 100.476 289.997 99.4587 290.072 98.264C290.165 97.0693 290.212 95.2587 290.212 92.832V91.012H294.216ZM305.924 100.448L309.62 107H305.56H296.236V103.976H303.852L296.544 91.012H300.604L303.768 96.64L306.064 91.012H310.04L305.924 100.448ZM327.921 99.02C327.921 101.615 327.314 103.659 326.101 105.152C324.906 106.627 323.217 107.364 321.033 107.364C320.249 107.364 319.39 107.252 318.457 107.028L318.821 104.004C319.512 104.153 320.09 104.228 320.557 104.228C321.826 104.228 322.732 103.808 323.273 102.968C323.814 102.109 324.085 100.849 324.085 99.188C324.085 97.34 323.824 96.0053 323.301 95.184C322.797 94.344 322.013 93.924 320.949 93.924C320.202 93.924 319.568 94.148 319.045 94.596C318.541 95.044 318.224 95.6507 318.093 96.416L316.357 107H312.325L314.257 96.22L312.017 91.012H316.217L317.337 94.204C317.729 93.0467 318.317 92.188 319.101 91.628C319.885 91.0493 320.781 90.76 321.789 90.76C323.786 90.76 325.308 91.4507 326.353 92.832C327.398 94.1947 327.921 96.2573 327.921 99.02ZM341.182 107L335.918 98.852L333.426 107H329.59L332.698 97.396L333.566 95.24L330.962 91.012H335.022L337.262 94.652L339.278 97.704L340.034 95.156L341.154 91.012H344.99L341.63 101.204L345.494 107H341.182ZM360.647 103.976V107H354.739H347.347V103.976H354.739V96.08C354.739 94.7173 354.105 94.036 352.835 94.036H347.347V91.012H353.955C355.449 91.012 356.625 91.4413 357.483 92.3C358.342 93.14 358.771 94.4653 358.771 96.276V103.976H360.647Z" fill="#FFF2B4"/>
<path d="M45.4142 130.586C44.6332 131.367 43.3668 131.367 42.5858 130.586L36 124H52L45.4142 130.586Z" fill="#073799"/>
</g>
<defs>
<filter id="filter0_d_105_4699" x="-14" y="0" width="422" height="162" filterUnits="userSpaceOnUse" color-interpolation-filters="sRGB">
<feFlood flood-opacity="0" result="BackgroundImageFix"/>
<feColorMatrix in="SourceAlpha" type="matrix" values="0 0 0 0 0 0 0 0 0 0 0 0 0 0 0 0 0 0 127 0" result="hardAlpha"/>
<feOffset/>
<feGaussianBlur stdDeviation="15"/>
<feComposite in2="hardAlpha" operator="out"/>
<feColorMatrix type="matrix" values="0 0 0 0 0.00416667 0 0 0 0 0.00416667 0 0 0 0 0.00416667 0 0 0 0.2 0"/>
<feBlend mode="normal" in2="BackgroundImageFix" result="effect1_dropShadow_105_4699"/>
<feBlend mode="normal" in="SourceGraphic" in2="effect1_dropShadow_105_4699" result="shape"/>
</filter>
</defs>
</svg>
