<svg width="194" height="123" viewBox="0 0 194 123" fill="none" xmlns="http://www.w3.org/2000/svg">
<g filter="url(#filter0_d_105_5025)">
<rect x="30" y="30" width="134" height="55" rx="8" fill="#073799"/>
<path d="M45.0044 52.768L44.8924 49.24H48.7284L48.5884 52.768L48.0564 61.672H45.5364L45.0044 52.768ZM46.7964 68.336C46.1244 68.336 45.5644 68.1027 45.1164 67.636C44.6684 67.1693 44.4444 66.5813 44.4444 65.872C44.4444 65.1627 44.6684 64.5747 45.1164 64.108C45.5644 63.6413 46.1244 63.408 46.7964 63.408C47.4684 63.408 48.0284 63.6413 48.4764 64.108C48.9244 64.5747 49.1484 65.1627 49.1484 65.872C49.1484 66.5813 48.9244 67.1693 48.4764 67.636C48.0284 68.1027 47.4684 68.336 46.7964 68.336ZM58.8093 58.312C58.8093 57.6027 58.8746 56.968 59.0053 56.408C59.1546 55.8293 59.3506 55.372 59.5933 55.036H52.4253V52.012H65.5573V55.036H63.3733C63.0186 55.8387 62.8413 56.9307 62.8413 58.312V68H58.8093V58.312ZM68.3291 55.288L67.9931 52.012H72.0251L72.3611 55.288V68H68.3291V55.288ZM88.2312 64.976V68H82.3232H74.9312V64.976H82.3232V57.08C82.3232 55.7173 81.6885 55.036 80.4192 55.036H74.9312V52.012H81.5392C83.0325 52.012 84.2085 52.4413 85.0672 53.3C85.9259 54.14 86.3552 55.4653 86.3552 57.276V64.976H88.2312ZM89.8823 64.976H94.3623C95.445 64.976 96.2383 64.6213 96.7423 63.912C97.265 63.2027 97.5263 62.2507 97.5263 61.056V58.956C97.5263 57.7613 97.265 56.8093 96.7423 56.1C96.2383 55.3907 95.445 55.036 94.3623 55.036H89.8823V52.012H95.4543C97.4516 52.012 98.973 52.656 100.018 53.944C101.064 55.2133 101.586 56.9587 101.586 59.18V60.832C101.586 63.0533 101.064 64.808 100.018 66.096C98.973 67.3653 97.4516 68 95.4543 68H89.8823V64.976ZM113.356 57.08C113.356 55.7173 112.731 55.036 111.48 55.036H104.172V52.012H112.572C114.065 52.012 115.241 52.4413 116.1 53.3C116.977 54.14 117.416 55.4653 117.416 57.276V68H113.356V57.08ZM104.004 60.356L104.564 58.48H108.064V68H104.004V60.356ZM137.364 52.012V55.344L132.324 68H128.292L133.304 55.036H125.184V47.924H128.824V52.012H137.364ZM139.074 64.976H143.554C144.636 64.976 145.43 64.6213 145.934 63.912C146.456 63.2027 146.718 62.2507 146.718 61.056V58.956C146.718 57.7613 146.456 56.8093 145.934 56.1C145.43 55.3907 144.636 55.036 143.554 55.036H139.074V52.012H144.646C146.643 52.012 148.164 52.656 149.21 53.944C150.255 55.2133 150.778 56.9587 150.778 59.18V60.832C150.778 63.0533 150.255 64.808 149.21 66.096C148.164 67.3653 146.643 68 144.646 68H139.074V64.976Z" fill="#FFF2B4"/>
<path d="M59.4142 91.5858C58.6332 92.3668 57.3668 92.3668 56.5858 91.5858L50 85H66L59.4142 91.5858Z" fill="#073799"/>
</g>
<defs>
<filter id="filter0_d_105_5025" x="0" y="0" width="194" height="123" filterUnits="userSpaceOnUse" color-interpolation-filters="sRGB">
<feFlood flood-opacity="0" result="BackgroundImageFix"/>
<feColorMatrix in="SourceAlpha" type="matrix" values="0 0 0 0 0 0 0 0 0 0 0 0 0 0 0 0 0 0 127 0" result="hardAlpha"/>
<feOffset/>
<feGaussianBlur stdDeviation="15"/>
<feComposite in2="hardAlpha" operator="out"/>
<feColorMatrix type="matrix" values="0 0 0 0 0.00416667 0 0 0 0 0.00416667 0 0 0 0 0.00416667 0 0 0 0.2 0"/>
<feBlend mode="normal" in2="BackgroundImageFix" result="effect1_dropShadow_105_5025"/>
<feBlend mode="normal" in="SourceGraphic" in2="effect1_dropShadow_105_5025" result="shape"/>
</filter>
</defs>
</svg>
