<svg width="370" height="201" viewBox="0 0 370 201" fill="none" xmlns="http://www.w3.org/2000/svg">
<g filter="url(#filter0_d_104_4213)">
<rect x="30" y="30" width="310" height="133" rx="8" fill="#073799"/>
<path d="M65.3001 52.012C66.7934 52.012 67.9694 52.46 68.8281 53.356C69.7054 54.252 70.1441 55.6053 70.1441 57.416V68H66.0841V57.22C66.0841 55.764 65.4588 55.036 64.2081 55.036H60.4561V68H56.4241V53.832V52.012H65.3001ZM72.6845 52.012H76.7445L78.1165 64.696C80.0578 64.5093 81.4391 63.94 82.2605 62.988C83.0818 62.0173 83.4738 60.6453 83.4365 58.872V58.004C83.4365 57.164 83.2031 56.4547 82.7365 55.876C82.2885 55.2787 81.6071 54.952 80.6925 54.896L79.3205 54.812L79.6285 51.704L81.3365 51.788C83.0725 51.8813 84.4911 52.4227 85.5925 53.412C86.7125 54.3827 87.3005 55.7733 87.3565 57.584L87.3845 58.368C87.4965 61.6533 86.4325 64.0893 84.1925 65.676C81.9711 67.244 78.7605 68.112 74.5605 68.28L72.6845 52.012ZM106.027 56.688C106.065 60.5147 104.954 63.408 102.695 65.368C100.437 67.3093 96.9368 68.28 92.1954 68.28H91.3274L89.2274 52.012H93.0634L93.8754 58.928C94.6221 58.5547 95.1261 57.9947 95.3874 57.248C95.6488 56.5013 95.7701 55.3813 95.7514 53.888V52.04H99.5874V53.804C99.5501 55.8573 99.1394 57.528 98.3554 58.816C97.5714 60.0853 96.1901 61.056 94.2114 61.728L94.6034 64.948C97.2728 64.78 99.1768 64.0147 100.315 62.652C101.454 61.2707 102.014 59.3573 101.995 56.912L101.939 52.012H105.999L106.027 56.688ZM120.132 52.012V55.344L115.092 68H111.06L116.072 55.036H107.952V47.924H111.592V52.012H120.132ZM144.555 56.688C144.592 60.5147 143.481 63.408 141.223 65.368C138.964 67.3093 135.464 68.28 130.723 68.28H129.855L127.755 52.012H131.591L132.403 58.928C133.149 58.5547 133.653 57.9947 133.915 57.248C134.176 56.5013 134.297 55.3813 134.279 53.888V52.04H138.115V53.804C138.077 55.8573 137.667 57.528 136.883 58.816C136.099 60.0853 134.717 61.056 132.739 61.728L133.131 64.948C135.8 64.78 137.704 64.0147 138.843 62.652C139.981 61.2707 140.541 59.3573 140.523 56.912L140.467 52.012H144.527L144.555 56.688ZM147.319 55.288L146.983 52.012H151.015L151.351 55.288V59.656L151.323 61.42L147.319 62.12V55.288ZM167.221 64.976V68H161.313H153.921V64.976H161.313V57.08C161.313 55.7173 160.679 55.036 159.409 55.036H153.921V52.012H160.529C162.023 52.012 163.199 52.4413 164.057 53.3C164.916 54.14 165.345 55.4653 165.345 57.276V64.976H167.221ZM168.873 64.976H173.353C174.435 64.976 175.229 64.6213 175.733 63.912C176.255 63.2027 176.517 62.2507 176.517 61.056V58.956C176.517 57.7613 176.255 56.8093 175.733 56.1C175.229 55.3907 174.435 55.036 173.353 55.036H168.873V52.012H174.445C176.442 52.012 177.963 52.656 179.009 53.944C180.054 55.2133 180.577 56.9587 180.577 59.18V60.832C180.577 63.0533 180.054 64.808 179.009 66.096C177.963 67.3653 176.442 68 174.445 68H168.873V64.976ZM201.62 64.976V68H195.712H188.32V64.976H195.712V57.08C195.712 55.7173 195.077 55.036 193.808 55.036H188.32V52.012H194.928C196.421 52.012 197.597 52.4413 198.456 53.3C199.315 54.14 199.744 55.4653 199.744 57.276V64.976H201.62ZM212.987 61.448L216.683 68H212.623H203.299V64.976H210.915L203.607 52.012H207.667L210.831 57.64L213.127 52.012H217.103L212.987 61.448ZM234.984 60.02C234.984 62.6147 234.377 64.6587 233.164 66.152C231.969 67.6267 230.28 68.364 228.096 68.364C227.312 68.364 226.453 68.252 225.52 68.028L225.884 65.004C226.574 65.1533 227.153 65.228 227.62 65.228C228.889 65.228 229.794 64.808 230.336 63.968C230.877 63.1093 231.148 61.8493 231.148 60.188C231.148 58.34 230.886 57.0053 230.364 56.184C229.86 55.344 229.076 54.924 228.012 54.924C227.265 54.924 226.63 55.148 226.108 55.596C225.604 56.044 225.286 56.6507 225.156 57.416L223.42 68H219.388L221.32 57.22L219.08 52.012H223.28L224.4 55.204C224.792 54.0467 225.38 53.188 226.164 52.628C226.948 52.0493 227.844 51.76 228.852 51.76C230.849 51.76 232.37 52.4507 233.416 53.832C234.461 55.1947 234.984 57.2573 234.984 60.02ZM252.948 60.02C252.948 62.6147 252.342 64.6587 251.128 66.152C249.934 67.6267 248.244 68.364 246.06 68.364C245.276 68.364 244.418 68.252 243.484 68.028L243.848 65.004C244.539 65.1533 245.118 65.228 245.584 65.228C246.854 65.228 247.759 64.808 248.3 63.968C248.842 63.1093 249.112 61.8493 249.112 60.188C249.112 58.34 248.851 57.0053 248.328 56.184C247.824 55.344 247.04 54.924 245.976 54.924C245.23 54.924 244.595 55.148 244.072 55.596C243.568 56.044 243.251 56.6507 243.12 57.416L241.384 68H237.352L239.284 57.22L237.044 52.012H241.244L242.364 55.204C242.756 54.0467 243.344 53.188 244.128 52.628C244.912 52.0493 245.808 51.76 246.816 51.76C248.814 51.76 250.335 52.4507 251.38 53.832C252.426 55.1947 252.948 57.2573 252.948 60.02ZM267.755 57.08C267.755 55.7173 267.129 55.036 265.879 55.036H260.419V52.012H266.971C268.464 52.012 269.64 52.4413 270.499 53.3C271.376 54.14 271.815 55.4653 271.815 57.276V68H267.755V57.08ZM287.671 64.976V68H281.763H274.371V64.976H281.763V57.08C281.763 55.7173 281.128 55.036 279.859 55.036H274.371V52.012H280.979C282.472 52.012 283.648 52.4413 284.507 53.3C285.365 54.14 285.795 55.4653 285.795 57.276V64.976H287.671ZM303.462 52.012C303.443 55.7267 303.294 58.536 303.014 60.44C302.752 62.3253 302.043 63.9213 300.886 65.228C299.728 66.516 297.862 67.412 295.286 67.916L289.294 69.092L288.734 65.928L293.186 65.088L289.966 52.012H293.998L296.826 64.192C297.666 63.7813 298.272 63.156 298.646 62.316C299.019 61.476 299.243 60.4587 299.318 59.264C299.411 58.0693 299.458 56.2587 299.458 53.832V52.012H303.462ZM315.339 57.08C315.339 55.7173 314.713 55.036 313.463 55.036H306.155V52.012H314.555C316.048 52.012 317.224 52.4413 318.083 53.3C318.96 54.14 319.399 55.4653 319.399 57.276V68H315.339V57.08ZM305.987 60.356L306.547 58.48H310.047V68H305.987V60.356ZM58.4304 96.08C58.4304 94.7173 57.805 94.036 56.5544 94.036H49.2464V91.012H57.6464C59.1397 91.012 60.3157 91.4413 61.1744 92.3C62.0517 93.14 62.4904 94.4653 62.4904 96.276V107H58.4304V96.08ZM49.0784 99.356L49.6384 97.48H53.1384V107H49.0784V99.356ZM74.3132 100.448L78.0092 107H73.9492H64.6252V103.976H72.2412L64.9332 91.012H68.9932L72.1572 96.64L74.4532 91.012H78.4292L74.3132 100.448ZM81.1338 94.288L80.7978 91.012H84.8298L85.1658 94.288V98.656L85.1378 100.42L81.1338 101.12V94.288ZM97.0599 91.012C98.5532 91.012 99.7292 91.46 100.588 92.356C101.465 93.252 101.904 94.6053 101.904 96.416V107H97.8439V96.22C97.8439 94.764 97.2185 94.036 95.9679 94.036H92.2159V107H88.1839V92.832V91.012H97.0599ZM116.372 91.012V94.344L111.332 107H107.3L112.312 94.036H104.192V86.924H107.832V91.012H116.372ZM123.379 104.732C124.088 104.657 124.62 104.517 124.975 104.312C125.33 104.107 125.572 103.827 125.703 103.472C125.834 103.099 125.89 102.576 125.871 101.904V91.012H134.355C135.848 91.012 137.024 91.4413 137.883 92.3C138.742 93.14 139.171 94.4653 139.171 96.276V107H135.139V96.08C135.139 94.7173 134.504 94.036 133.235 94.036H129.931V101.372C129.931 102.791 129.707 103.92 129.259 104.76C128.83 105.6 128.167 106.235 127.271 106.664C126.394 107.075 125.208 107.345 123.715 107.476L123.379 104.732ZM142.356 94.288L142.02 91.012H146.052L146.388 94.288V107H142.356V94.288ZM162.847 91.012C162.828 94.7267 162.679 97.536 162.399 99.44C162.137 101.325 161.428 102.921 160.271 104.228C159.113 105.516 157.247 106.412 154.671 106.916L148.679 108.092L148.119 104.928L152.571 104.088L149.351 91.012H153.383L156.211 103.192C157.051 102.781 157.657 102.156 158.031 101.316C158.404 100.476 158.628 99.4587 158.703 98.264C158.796 97.0693 158.843 95.2587 158.843 92.832V91.012H162.847ZM174.555 100.448L178.251 107H174.191H164.867V103.976H172.483L165.175 91.012H169.235L172.399 96.64L174.695 91.012H178.671L174.555 100.448ZM196.552 99.02C196.552 101.615 195.945 103.659 194.732 105.152C193.537 106.627 191.848 107.364 189.664 107.364C188.88 107.364 188.021 107.252 187.088 107.028L187.452 104.004C188.143 104.153 188.721 104.228 189.188 104.228C190.457 104.228 191.363 103.808 191.904 102.968C192.445 102.109 192.716 100.849 192.716 99.188C192.716 97.34 192.455 96.0053 191.932 95.184C191.428 94.344 190.644 93.924 189.58 93.924C188.833 93.924 188.199 94.148 187.676 94.596C187.172 95.044 186.855 95.6507 186.724 96.416L184.988 107H180.956L182.888 96.22L180.648 91.012H184.848L185.968 94.204C186.36 93.0467 186.948 92.188 187.732 91.628C188.516 91.0493 189.412 90.76 190.42 90.76C192.417 90.76 193.939 91.4507 194.984 92.832C196.029 94.1947 196.552 96.2573 196.552 99.02ZM209.813 107L204.549 98.852L202.057 107H198.221L201.329 97.396L202.197 95.24L199.593 91.012H203.653L205.893 94.652L207.909 97.704L208.665 95.156L209.785 91.012H213.621L210.261 101.204L214.125 107H209.813ZM229.278 103.976V107H223.37H215.978V103.976H223.37V96.08C223.37 94.7173 222.735 94.036 221.466 94.036H215.978V91.012H222.586C224.079 91.012 225.255 91.4413 226.114 92.3C226.973 93.14 227.402 94.4653 227.402 96.276V103.976H229.278ZM244.515 96.08C244.515 94.7173 243.88 94.036 242.611 94.036H236.815V91.012H243.731C245.224 91.012 246.4 91.4413 247.259 92.3C248.117 93.14 248.547 94.4653 248.547 96.276V112.6H244.515V96.08ZM251.535 103.976H257.191C258.273 103.976 259.113 103.631 259.711 102.94C260.327 102.231 260.635 101.26 260.635 100.028V97.956C260.635 96.78 260.364 95.8373 259.823 95.128C259.3 94.4 258.525 94.036 257.499 94.036H255.483L254.979 96.416C254.923 96.6587 254.895 96.892 254.895 97.116C254.895 97.5827 255.035 97.9467 255.315 98.208C255.595 98.4507 256.052 98.6373 256.687 98.768L256.043 101.288C254.381 101.251 253.177 100.877 252.431 100.168C251.684 99.4587 251.311 98.4973 251.311 97.284C251.311 96.836 251.348 96.4253 251.423 96.052L252.543 91.012H258.451C260.392 91.012 261.913 91.656 263.015 92.944C264.116 94.232 264.667 95.968 264.667 98.152V99.832C264.667 102.072 264.079 103.827 262.903 105.096C261.727 106.365 260.14 107 258.143 107H251.535V103.976ZM276.333 96.08C276.333 94.7173 275.707 94.036 274.457 94.036H267.149V91.012H275.549C277.042 91.012 278.218 91.4413 279.077 92.3C279.954 93.14 280.393 94.4653 280.393 96.276V107H276.333V96.08ZM266.981 99.356L267.541 97.48H271.041V107H266.981V99.356ZM292.384 96.08C292.384 94.7173 291.758 94.036 290.508 94.036H283.2V91.012H291.6C293.093 91.012 294.269 91.4413 295.128 92.3C296.005 93.14 296.444 94.4653 296.444 96.276V107H292.384V96.08ZM283.032 99.356L283.592 97.48H287.092V107H283.032V99.356ZM305.052 94.288L304.716 91.012H308.748L309.084 94.288V107H305.052V94.288ZM322.77 107L317.506 98.852L315.014 107H311.178L314.286 97.396L315.154 95.24L312.55 91.012H316.61L318.85 94.652L320.866 97.704L321.622 95.156L322.742 91.012H326.578L323.218 101.204L327.082 107H322.77ZM96.8125 130.012C98.3058 130.012 99.4818 130.441 100.34 131.3C101.218 132.14 101.656 133.465 101.656 135.276V146H97.5965H88.8045H87.9645V130.012H91.9965H96.8125ZM97.5965 142.976V135.08C97.5965 133.717 96.9711 133.036 95.7205 133.036H91.9965V142.976H97.5965ZM104.759 133.288L104.423 130.012H108.455L108.791 133.288V137.656L108.763 139.42L104.759 140.12V133.288ZM124.661 142.976V146H118.753H111.361V142.976H118.753V135.08C118.753 133.717 118.118 133.036 116.849 133.036H111.361V130.012H117.969C119.462 130.012 120.638 130.441 121.497 131.3C122.356 132.14 122.785 133.465 122.785 135.276V142.976H124.661ZM136.028 139.448L139.724 146H135.664H126.34V142.976H133.956L126.648 130.012H130.708L133.872 135.64L136.168 130.012H140.144L136.028 139.448ZM158.025 138.02C158.025 140.615 157.418 142.659 156.205 144.152C155.01 145.627 153.321 146.364 151.137 146.364C150.353 146.364 149.494 146.252 148.561 146.028L148.925 143.004C149.615 143.153 150.194 143.228 150.661 143.228C151.93 143.228 152.835 142.808 153.377 141.968C153.918 141.109 154.189 139.849 154.189 138.188C154.189 136.34 153.927 135.005 153.405 134.184C152.901 133.344 152.117 132.924 151.053 132.924C150.306 132.924 149.671 133.148 149.149 133.596C148.645 134.044 148.327 134.651 148.197 135.416L146.461 146H142.429L144.361 135.22L142.121 130.012H146.321L147.441 133.204C147.833 132.047 148.421 131.188 149.205 130.628C149.989 130.049 150.885 129.76 151.893 129.76C153.89 129.76 155.411 130.451 156.457 131.832C157.502 133.195 158.025 135.257 158.025 138.02ZM169.801 135.08C169.801 133.717 169.176 133.036 167.925 133.036H160.617V130.012H169.017C170.511 130.012 171.687 130.441 172.545 131.3C173.423 132.14 173.861 133.465 173.861 135.276V146H169.801V135.08ZM160.449 138.356L161.009 136.48H164.509V146H160.449V138.356ZM192.04 138.02C192.04 140.615 191.434 142.659 190.22 144.152C189.026 145.627 187.336 146.364 185.152 146.364C184.368 146.364 183.51 146.252 182.576 146.028L182.94 143.004C183.631 143.153 184.21 143.228 184.676 143.228C185.946 143.228 186.851 142.808 187.392 141.968C187.934 141.109 188.204 139.849 188.204 138.188C188.204 136.34 187.943 135.005 187.42 134.184C186.916 133.344 186.132 132.924 185.068 132.924C184.322 132.924 183.687 133.148 183.164 133.596C182.66 134.044 182.343 134.651 182.212 135.416L180.476 146H176.444L178.376 135.22L176.136 130.012H180.336L181.456 133.204C181.848 132.047 182.436 131.188 183.22 130.628C184.004 130.049 184.9 129.76 185.908 129.76C187.906 129.76 189.427 130.451 190.472 131.832C191.518 133.195 192.04 135.257 192.04 138.02ZM206.091 136.312C206.091 135.603 206.156 134.968 206.287 134.408C206.436 133.829 206.632 133.372 206.875 133.036H199.707V130.012H212.839V133.036H210.655C210.3 133.839 210.123 134.931 210.123 136.312V146H206.091V136.312ZM224.29 130.012C225.784 130.012 226.96 130.46 227.818 131.356C228.696 132.252 229.134 133.605 229.134 135.416V146H225.074V135.22C225.074 133.764 224.449 133.036 223.198 133.036H219.446V146H215.414V131.832V130.012H224.29ZM242.735 146L237.471 137.852L234.979 146H231.143L234.251 136.396L235.119 134.24L232.515 130.012H236.575L238.815 133.652L240.831 136.704L241.587 134.156L242.707 130.012H246.543L243.183 140.204L247.047 146H242.735ZM266.489 130.012V133.344L261.449 146H257.417L262.429 133.036H254.309V125.924H257.949V130.012H266.489ZM282.339 130.012C282.32 133.727 282.171 136.536 281.891 138.44C281.629 140.325 280.92 141.921 279.763 143.228C278.605 144.516 276.739 145.412 274.163 145.916L268.171 147.092L267.611 143.928L272.063 143.088L268.843 130.012H272.875L275.703 142.192C276.543 141.781 277.149 141.156 277.523 140.316C277.896 139.476 278.12 138.459 278.195 137.264C278.288 136.069 278.335 134.259 278.335 131.832V130.012H282.339Z" fill="#FFF2B4"/>
<path d="M59.4142 169.586C58.6332 170.367 57.3668 170.367 56.5858 169.586L50 163H66L59.4142 169.586Z" fill="#073799"/>
</g>
<defs>
<filter id="filter0_d_104_4213" x="0" y="0" width="370" height="201" filterUnits="userSpaceOnUse" color-interpolation-filters="sRGB">
<feFlood flood-opacity="0" result="BackgroundImageFix"/>
<feColorMatrix in="SourceAlpha" type="matrix" values="0 0 0 0 0 0 0 0 0 0 0 0 0 0 0 0 0 0 127 0" result="hardAlpha"/>
<feOffset/>
<feGaussianBlur stdDeviation="15"/>
<feComposite in2="hardAlpha" operator="out"/>
<feColorMatrix type="matrix" values="0 0 0 0 0.00416667 0 0 0 0 0.00416667 0 0 0 0 0.00416667 0 0 0 0.2 0"/>
<feBlend mode="normal" in2="BackgroundImageFix" result="effect1_dropShadow_104_4213"/>
<feBlend mode="normal" in="SourceGraphic" in2="effect1_dropShadow_104_4213" result="shape"/>
</filter>
</defs>
</svg>
