<svg width="291" height="154" viewBox="0 0 291 154" fill="none" xmlns="http://www.w3.org/2000/svg">
<g filter="url(#filter0_d_257_806)">
<rect x="30" y="30" width="231" height="86" rx="8" fill="#073799"/>
<path d="M54.5322 55.25C54.5322 54.0333 53.9739 53.425 52.8572 53.425H47.9822V50.725H53.8322C55.1656 50.725 56.2156 51.1083 56.9822 51.875C57.7656 52.625 58.1572 53.8083 58.1572 55.425V65H54.5322V55.25ZM61.0143 53.65L60.7143 50.725H64.3143L64.6143 53.65V57.55L64.5893 59.125L61.0143 59.75V53.65ZM67.484 53.65L67.184 50.725H70.784L71.084 53.65V65H67.484V53.65ZM73.9537 53.65L73.6537 50.725H77.2537L77.5537 53.65V65H73.9537V53.65ZM89.7734 65L85.0734 57.725L82.8484 65H79.4234L82.1984 56.425L82.9734 54.5L80.6484 50.725H84.2734L86.2734 53.975L88.0734 56.7L88.7484 54.425L89.7484 50.725H93.1734L90.1734 59.825L93.6234 65H89.7734ZM103.878 55.25C103.878 54.0333 103.32 53.425 102.203 53.425H95.6781V50.725H103.178C104.511 50.725 105.561 51.1083 106.328 51.875C107.111 52.625 107.503 53.8083 107.503 55.425V65H103.878V55.25ZM95.5281 58.175L96.0281 56.5H99.1531V65H95.5281V58.175ZM121.489 62.15L123.964 70H120.514L114.489 50.725H117.914L120.114 57.7L123.039 50.725H126.464L121.489 62.15ZM136.269 50.725C137.602 50.725 138.652 51.125 139.419 51.925C140.202 52.725 140.594 53.9333 140.594 55.55V65H136.969V55.375C136.969 54.075 136.411 53.425 135.294 53.425H131.944V65H128.344V52.35V50.725H136.269ZM153.512 50.725V53.7L149.012 65H145.412L149.887 53.425H142.637V47.075H145.887V50.725H153.512ZM165.963 50.725V53.7L161.463 65H157.863L162.338 53.425H155.088V47.075H158.338V50.725H165.963ZM184.595 62.3V65H179.32H172.72V62.3H179.32V55.25C179.32 54.0333 178.753 53.425 177.62 53.425H172.72V50.725H178.62C179.953 50.725 181.003 51.1083 181.77 51.875C182.536 52.625 182.92 53.8083 182.92 55.425V62.3H184.595ZM196.994 50.725V53.7L192.494 65H188.894L193.369 53.425H186.119V47.075H189.369V50.725H196.994ZM204.325 53.65L204.025 50.725H207.625L207.925 53.65V65H204.325V53.65ZM224.345 57.875C224.345 60.1917 223.803 62.0167 222.72 63.35C221.653 64.6667 220.145 65.325 218.195 65.325C217.495 65.325 216.728 65.225 215.895 65.025L216.22 62.325C216.836 62.4583 217.353 62.525 217.77 62.525C218.903 62.525 219.711 62.15 220.195 61.4C220.678 60.6333 220.92 59.5083 220.92 58.025C220.92 56.375 220.686 55.1833 220.22 54.45C219.77 53.7 219.07 53.325 218.12 53.325C217.453 53.325 216.886 53.525 216.42 53.925C215.97 54.325 215.686 54.8667 215.57 55.55L214.02 65H210.42L212.145 55.375L210.145 50.725H213.895L214.895 53.575C215.245 52.5417 215.77 51.775 216.47 51.275C217.17 50.7583 217.97 50.5 218.87 50.5C220.653 50.5 222.011 51.1167 222.945 52.35C223.878 53.5667 224.345 55.4083 224.345 57.875ZM226.835 53.65L226.535 50.725H230.135L230.435 53.65V57.55L230.41 59.125L226.835 59.75V53.65ZM247.779 54.9C247.813 58.3167 246.821 60.9 244.804 62.65C242.788 64.3833 239.663 65.25 235.429 65.25H234.654L232.779 50.725H236.204L236.929 56.9C237.596 56.5667 238.046 56.0667 238.279 55.4C238.513 54.7333 238.621 53.7333 238.604 52.4V50.75H242.029V52.325C241.996 54.1583 241.629 55.65 240.929 56.8C240.229 57.9333 238.996 58.8 237.229 59.4L237.579 62.275C239.963 62.125 241.663 61.4417 242.679 60.225C243.696 58.9917 244.196 57.2833 244.179 55.1L244.129 50.725H247.754L247.779 54.9ZM85.2384 85.725V88.7L80.7384 100H77.1384L81.6134 88.425H74.3634V82.075H77.6134V85.725H85.2384ZM97.6896 85.725V88.7L93.1896 100H89.5896L94.0646 88.425H86.8146V82.075H90.0646V85.725H97.6896ZM100.016 88.65L99.7157 85.725H103.316L103.616 88.65V100H100.016V88.65ZM105.685 97.3H109.685C110.652 97.3 111.36 96.9833 111.81 96.35C112.277 95.7167 112.51 94.8667 112.51 93.8V91.925C112.51 90.8583 112.277 90.0083 111.81 89.375C111.36 88.7417 110.652 88.425 109.685 88.425H105.685V85.725H110.66C112.444 85.725 113.802 86.3 114.735 87.45C115.669 88.5833 116.135 90.1417 116.135 92.125V93.6C116.135 95.5833 115.669 97.15 114.735 98.3C113.802 99.4333 112.444 100 110.66 100H105.685V97.3ZM126.644 90.25C126.644 89.0333 126.086 88.425 124.969 88.425H118.444V85.725H125.944C127.278 85.725 128.328 86.1083 129.094 86.875C129.878 87.625 130.269 88.8083 130.269 90.425V100H126.644V90.25ZM118.294 93.175L118.794 91.5H121.919V100H118.294V93.175ZM148.08 85.725V88.7L143.58 100H139.98L144.455 88.425H137.205V82.075H140.455V85.725H148.08ZM155.006 97.325C156.14 97.225 156.981 96.8417 157.531 96.175C158.081 95.5083 158.415 94.375 158.531 92.775L158.856 88.425H150.156V85.725H162.731L162.606 88.05L162.331 91.825C162.065 97.2417 159.715 99.975 155.281 100.025L155.006 97.325ZM149.956 93.025L150.456 91.3H153.581V105H149.956V93.025ZM179.627 89.9C179.661 93.3167 178.669 95.9 176.652 97.65C174.636 99.3833 171.511 100.25 167.277 100.25H166.502L164.627 85.725H168.052L168.777 91.9C169.444 91.5667 169.894 91.0667 170.127 90.4C170.361 89.7333 170.469 88.7333 170.452 87.4V85.75H173.877V87.325C173.844 89.1583 173.477 90.65 172.777 91.8C172.077 92.9333 170.844 93.8 169.077 94.4L169.427 97.275C171.811 97.125 173.511 96.4417 174.527 95.225C175.544 93.9917 176.044 92.2833 176.027 90.1L175.977 85.725H179.602L179.627 89.9ZM195.646 92.875C195.646 95.1917 195.104 97.0167 194.021 98.35C192.954 99.6667 191.446 100.325 189.496 100.325C188.796 100.325 188.029 100.225 187.196 100.025L187.521 97.325C188.137 97.4583 188.654 97.525 189.071 97.525C190.204 97.525 191.012 97.15 191.496 96.4C191.979 95.6333 192.221 94.5083 192.221 93.025C192.221 91.375 191.987 90.1833 191.521 89.45C191.071 88.7 190.371 88.325 189.421 88.325C188.754 88.325 188.187 88.525 187.721 88.925C187.271 89.325 186.987 89.8667 186.871 90.55L185.321 100H181.721L183.446 90.375L181.446 85.725H185.196L186.196 88.575C186.546 87.5417 187.071 86.775 187.771 86.275C188.471 85.7583 189.271 85.5 190.171 85.5C191.954 85.5 193.312 86.1167 194.246 87.35C195.179 88.5667 195.646 90.4083 195.646 92.875ZM206.161 90.25C206.161 89.0333 205.603 88.425 204.486 88.425H197.961V85.725H205.461C206.794 85.725 207.844 86.1083 208.611 86.875C209.394 87.625 209.786 88.8083 209.786 90.425V100H206.161V90.25ZM197.811 93.175L198.311 91.5H201.436V100H197.811V93.175ZM212.467 88.65L212.167 85.725H215.767L216.067 88.65V100H212.467V88.65Z" fill="#FFF2B4"/>
<path d="M59.4142 122.586C58.6332 123.367 57.3668 123.367 56.5858 122.586L50 116H66L59.4142 122.586Z" fill="#073799"/>
</g>
<defs>
<filter id="filter0_d_257_806" x="0" y="0" width="291" height="154" filterUnits="userSpaceOnUse" color-interpolation-filters="sRGB">
<feFlood flood-opacity="0" result="BackgroundImageFix"/>
<feColorMatrix in="SourceAlpha" type="matrix" values="0 0 0 0 0 0 0 0 0 0 0 0 0 0 0 0 0 0 127 0" result="hardAlpha"/>
<feOffset/>
<feGaussianBlur stdDeviation="15"/>
<feComposite in2="hardAlpha" operator="out"/>
<feColorMatrix type="matrix" values="0 0 0 0 0.00416667 0 0 0 0 0.00416667 0 0 0 0 0.00416667 0 0 0 0.2 0"/>
<feBlend mode="normal" in2="BackgroundImageFix" result="effect1_dropShadow_257_806"/>
<feBlend mode="normal" in="SourceGraphic" in2="effect1_dropShadow_257_806" result="shape"/>
</filter>
</defs>
</svg>
