<svg width="391" height="162" viewBox="0 0 391 162" fill="none" xmlns="http://www.w3.org/2000/svg">
<g filter="url(#filter0_d_100_1746)">
<rect x="30" y="30" width="331" height="94" rx="8" fill="#073799"/>
<path d="M51.655 68L56.695 55.064H48.575V52.012H60.755V55.344L55.715 68H51.655ZM48.575 55.064V47.924H52.215V55.064H48.575ZM65.6003 68L70.6403 55.064H62.5203V52.012H74.7003V55.344L69.6603 68H65.6003ZM62.5203 55.064V47.924H66.1603V55.064H62.5203ZM83.0177 68.028L83.3817 65.004C84.763 65.3027 85.8363 65.2933 86.6017 64.976C87.367 64.64 87.899 64.0333 88.1977 63.156C88.515 62.2787 88.6643 61.1867 88.6457 59.88C88.627 58.704 88.4963 57.752 88.2537 57.024C88.011 56.296 87.6657 55.7733 87.2177 55.456C86.7697 55.12 86.2003 54.952 85.5097 54.952C85.0057 54.952 84.5483 55.0547 84.1377 55.26C83.727 55.4653 83.391 55.764 83.1297 56.156C82.8683 56.548 82.7003 57.0147 82.6257 57.556L81.7017 55.82C82.075 54.4013 82.6817 53.3747 83.5217 52.74C84.3803 52.0867 85.323 51.76 86.3497 51.76C87.339 51.76 88.207 51.928 88.9537 52.264C89.719 52.5813 90.363 53.076 90.8857 53.748C91.4083 54.42 91.8003 55.2693 92.0617 56.296C92.3417 57.3227 92.4817 58.5173 92.4817 59.88C92.5003 61.9333 92.1363 63.6507 91.3897 65.032C90.6617 66.4133 89.5883 67.384 88.1697 67.944C86.751 68.4853 85.0337 68.5133 83.0177 68.028ZM76.8577 68L78.8177 57.22L76.5777 52.012H80.7777L82.6537 57.416L80.9177 68H76.8577ZM102.019 68V57.08C102.019 56.352 101.851 55.8387 101.515 55.54C101.179 55.2227 100.712 55.064 100.115 55.064H94.5985V52.012H101.235C102.168 52.012 102.999 52.1893 103.727 52.544C104.455 52.8987 105.024 53.4587 105.435 54.224C105.845 54.9893 106.051 56.0067 106.051 57.276V68H102.019ZM94.5985 68V64.976H107.927V68H94.5985ZM122.491 68V57.08C122.491 56.352 122.323 55.8387 121.987 55.54C121.67 55.2227 121.212 55.064 120.615 55.064H115.127V52.012H121.707C122.64 52.012 123.471 52.1893 124.199 52.544C124.927 52.8987 125.496 53.4587 125.907 54.224C126.336 54.9893 126.551 56.0067 126.551 57.276V68H122.491ZM136.499 68V57.08C136.499 56.352 136.331 55.8387 135.995 55.54C135.659 55.2227 135.192 55.064 134.595 55.064H129.079V52.012H135.715C136.648 52.012 137.479 52.1893 138.207 52.544C138.935 52.8987 139.504 53.4587 139.915 54.224C140.326 54.9893 140.531 56.0067 140.531 57.276V68H136.499ZM129.079 68V64.976H142.407V68H129.079ZM146.27 68.28L144.73 55.064L148.594 53.244L149.826 64.696C150.629 64.6213 151.319 64.5 151.898 64.332C152.495 64.1453 152.99 63.8933 153.382 63.576C153.774 63.24 154.073 62.848 154.278 62.4C154.502 61.9333 154.661 61.392 154.754 60.776C154.847 60.16 154.875 59.46 154.838 58.676V57.836C154.838 57.2573 154.745 56.772 154.558 56.38C154.39 55.9693 154.138 55.652 153.802 55.428C153.485 55.1853 153.102 55.064 152.654 55.064H144.73L144.366 52.012H152.962C154.81 52.012 156.229 52.5347 157.218 53.58C158.226 54.6253 158.758 56.044 158.814 57.836L158.842 58.76C158.898 60.496 158.637 61.9613 158.058 63.156C157.498 64.332 156.658 65.284 155.538 66.012C154.437 66.74 153.102 67.2907 151.534 67.664C149.966 68.0187 148.211 68.224 146.27 68.28ZM170.895 68V57.08C170.895 56.352 170.727 55.8387 170.391 55.54C170.074 55.2227 169.617 55.064 169.019 55.064H161.711V52.012H170.111C171.045 52.012 171.875 52.1893 172.603 52.544C173.331 52.8987 173.901 53.4587 174.311 54.224C174.741 54.9893 174.955 56.0067 174.955 57.276V68H170.895ZM161.543 68V60.356L162.103 58.48H165.603V60.356V68H161.543ZM180.198 68L185.238 55.064H177.118V52.012H189.298V55.344L184.258 68H180.198ZM177.118 55.064V47.924H180.758V55.064H177.118ZM206.917 68V57.08C206.917 56.352 206.749 55.8387 206.413 55.54C206.095 55.2227 205.638 55.064 205.041 55.064H199.833V52.012H206.133C207.066 52.012 207.897 52.1893 208.625 52.544C209.353 52.8987 209.922 53.4587 210.333 54.224C210.762 54.9893 210.977 56.0067 210.977 57.276V65.396V68H206.917ZM198.125 68V64.976H209.521L209.437 68H198.125ZM197.257 68V54.476V52.012H201.317V54.7V68H197.257ZM219.259 68L218.167 61.644V56.856C218.167 56.1653 218.055 55.6893 217.831 55.428C217.626 55.148 217.29 54.9707 216.823 54.896L215.059 54.672L215.563 51.676L218.867 52.124C220.006 52.2547 220.846 52.6747 221.387 53.384C221.928 54.0933 222.199 55.1013 222.199 56.408V61.728L223.095 68H219.259ZM214.331 68.532L212.847 65.34C214.228 64.892 215.358 64.332 216.235 63.66C217.131 62.988 217.803 62.1853 218.251 61.252L219.595 63.352C219.24 64.1733 218.839 64.92 218.391 65.592C217.943 66.2453 217.392 66.8147 216.739 67.3C216.086 67.7853 215.283 68.196 214.331 68.532ZM240.96 68V57.08C240.96 56.352 240.792 55.8387 240.456 55.54C240.138 55.2227 239.681 55.064 239.084 55.064H233.876V52.012H240.176C241.109 52.012 241.94 52.1893 242.668 52.544C243.396 52.8987 243.965 53.4587 244.376 54.224C244.805 54.9893 245.02 56.0067 245.02 57.276V65.396V68H240.96ZM232.168 68V64.976H243.564L243.48 68H232.168ZM231.3 68V54.476V52.012H235.36V54.7V68H231.3ZM247.226 68V64.976H251.706C252.453 64.976 253.059 64.808 253.526 64.472C253.993 64.136 254.329 63.6693 254.534 63.072C254.758 62.4747 254.87 61.8027 254.87 61.056V58.956C254.87 58.2093 254.758 57.5467 254.534 56.968C254.329 56.3707 253.993 55.904 253.526 55.568C253.059 55.232 252.453 55.064 251.706 55.064H247.226V52.012H252.798C254.161 52.012 255.29 52.3107 256.186 52.908C257.101 53.5053 257.782 54.3453 258.23 55.428C258.697 56.492 258.93 57.7427 258.93 59.18V60.832C258.93 62.288 258.697 63.5573 258.23 64.64C257.782 65.704 257.101 66.5347 256.186 67.132C255.29 67.7107 254.161 68 252.798 68H247.226ZM263.952 68L268.992 55.064H260.872V52.012H273.052V55.344L268.012 68H263.952ZM260.872 55.064V47.924H264.512V55.064H260.872ZM281.235 62.12V59.656V55.288L280.927 52.012H284.959L285.295 55.288V59.656L285.267 61.42L281.235 62.12ZM287.641 68.476L287.277 65.732C288.005 65.6387 288.546 65.4987 288.901 65.312C289.255 65.1067 289.489 64.808 289.601 64.416C289.731 64.024 289.797 63.52 289.797 62.904V52.012H298.281C299.214 52.012 300.035 52.1893 300.745 52.544C301.473 52.8987 302.042 53.4587 302.453 54.224C302.882 54.9893 303.097 56.0067 303.097 57.276V68H299.037V57.08C299.037 56.352 298.869 55.8387 298.533 55.54C298.215 55.2227 297.758 55.064 297.161 55.064H293.857V62.372C293.857 63.8093 293.633 64.948 293.185 65.788C292.755 66.628 292.083 67.2533 291.169 67.664C290.254 68.0747 289.078 68.3453 287.641 68.476ZM311.462 68L310.37 61.644V56.856C310.37 56.1653 310.258 55.6893 310.034 55.428C309.829 55.148 309.493 54.9707 309.026 54.896L307.262 54.672L307.766 51.676L311.07 52.124C312.209 52.2547 313.049 52.6747 313.59 53.384C314.132 54.0933 314.402 55.1013 314.402 56.408V61.728L315.298 68H311.462ZM306.534 68.532L305.05 65.34C306.432 64.892 307.561 64.332 308.438 63.66C309.334 62.988 310.006 62.1853 310.454 61.252L311.798 63.352C311.444 64.1733 311.042 64.92 310.594 65.592C310.146 66.2453 309.596 66.8147 308.942 67.3C308.289 67.7853 307.486 68.196 306.534 68.532ZM332.933 68H328.621L323.357 59.852L320.865 68H317.029L320.137 58.396L320.977 56.24L318.401 52.012H322.461L324.701 55.652L326.717 58.704L327.473 56.156L328.593 52.012H332.429L329.069 62.204L332.933 68ZM341.087 68V58.34C341.087 57.5933 341.152 56.94 341.283 56.38C341.432 55.82 341.628 55.3813 341.871 55.064H334.703V52.012H347.835V55.064H345.651C345.445 55.5307 345.305 56.072 345.231 56.688C345.156 57.2853 345.119 57.836 345.119 58.34V68H341.087ZM74.2698 112.6V94.288L73.9618 91.012H77.9938L78.3298 94.288V112.6H74.2698ZM81.5159 107V94.288L81.2079 91.012H85.2399L85.5759 94.288V107H81.5159ZM90.078 107.28L88.202 91.012H92.262L93.634 103.696C94.642 103.603 95.4914 103.407 96.182 103.108C96.8727 102.791 97.4234 102.389 97.834 101.904C98.2447 101.4 98.534 100.812 98.702 100.14C98.8887 99.468 98.9727 98.7213 98.954 97.9V97.004C98.954 96.4813 98.8607 95.996 98.674 95.548C98.4874 95.1 98.1887 94.7267 97.778 94.428C97.3674 94.1107 96.8447 93.9333 96.21 93.896L94.838 93.812L95.146 90.704L96.854 90.788C97.9554 90.844 98.9447 91.0867 99.822 91.516C100.718 91.9453 101.437 92.58 101.978 93.42C102.538 94.2413 102.837 95.296 102.874 96.584L102.902 97.368C102.958 99.0667 102.697 100.532 102.118 101.764C101.558 102.977 100.709 103.976 99.57 104.76C98.45 105.544 97.0874 106.141 95.482 106.552C93.8767 106.944 92.0754 107.187 90.078 107.28ZM111.745 107V96.08C111.745 95.352 111.577 94.8387 111.241 94.54C110.924 94.2227 110.466 94.064 109.869 94.064H104.381V91.012H110.961C111.894 91.012 112.725 91.1893 113.453 91.544C114.181 91.8987 114.75 92.4587 115.161 93.224C115.59 93.9893 115.805 95.0067 115.805 96.276V107H111.745ZM120.321 107.28L118.781 94.064L122.645 92.244L123.877 103.696C124.68 103.621 125.37 103.5 125.949 103.332C126.546 103.145 127.041 102.893 127.433 102.576C127.825 102.24 128.124 101.848 128.329 101.4C128.553 100.933 128.712 100.392 128.805 99.776C128.898 99.16 128.926 98.46 128.889 97.676V96.836C128.889 96.2573 128.796 95.772 128.609 95.38C128.441 94.9693 128.189 94.652 127.853 94.428C127.536 94.1853 127.153 94.064 126.705 94.064H118.781L118.417 91.012H127.013C128.861 91.012 130.28 91.5347 131.269 92.58C132.277 93.6253 132.809 95.044 132.865 96.836L132.893 97.76C132.949 99.496 132.688 100.961 132.109 102.156C131.549 103.332 130.709 104.284 129.589 105.012C128.488 105.74 127.153 106.291 125.585 106.664C124.017 107.019 122.262 107.224 120.321 107.28ZM142.706 107V96.08C142.706 95.352 142.538 94.8387 142.202 94.54C141.866 94.2227 141.399 94.064 140.802 94.064H135.286V91.012H141.922C142.855 91.012 143.686 91.1893 144.414 91.544C145.142 91.8987 145.711 92.4587 146.122 93.224C146.533 93.9893 146.738 95.0067 146.738 96.276V107H142.706ZM135.286 107V103.976H148.614V107H135.286ZM163.179 107V96.08C163.179 95.352 163.011 94.8387 162.675 94.54C162.357 94.2227 161.9 94.064 161.303 94.064H155.815V91.012H162.395C163.328 91.012 164.159 91.1893 164.887 91.544C165.615 91.8987 166.184 92.4587 166.595 93.224C167.024 93.9893 167.239 95.0067 167.239 96.276V107H163.179ZM177.186 107V96.08C177.186 95.352 177.018 94.8387 176.682 94.54C176.346 94.2227 175.88 94.064 175.282 94.064H169.766V91.012H176.402C177.336 91.012 178.166 91.1893 178.894 91.544C179.622 91.8987 180.192 92.4587 180.602 93.224C181.013 93.9893 181.218 95.0067 181.218 96.276V107H177.186ZM169.766 107V103.976H183.094V107H169.766ZM184.69 108.092L184.13 104.928L190.654 103.696C191.568 103.528 192.296 103.248 192.838 102.856C193.398 102.445 193.818 101.913 194.098 101.26C194.378 100.588 194.574 99.776 194.686 98.824C194.798 97.8533 194.854 96.724 194.854 95.436C194.872 94.148 194.882 92.6733 194.882 91.012H198.886C198.886 92.8413 198.848 94.512 198.774 96.024C198.718 97.5173 198.559 98.8707 198.298 100.084C198.055 101.279 197.644 102.333 197.066 103.248C196.487 104.144 195.684 104.9 194.658 105.516C193.631 106.132 192.315 106.599 190.71 106.916L184.69 108.092ZM188.694 104.48L185.362 91.012H189.422L192.558 104.48H188.694ZM201.746 107V94.288L201.438 91.012H205.47L205.806 94.288V107H201.746ZM218.009 107V96.08C218.009 95.352 217.841 94.8387 217.505 94.54C217.187 94.2227 216.73 94.064 216.133 94.064H208.825V91.012H217.225C218.158 91.012 218.989 91.1893 219.717 91.544C220.445 91.8987 221.014 92.4587 221.425 93.224C221.854 93.9893 222.069 95.0067 222.069 96.276V107H218.009ZM208.657 107V99.356L209.217 97.48H212.717V99.356V107H208.657ZM226.583 107.28L224.483 91.012H228.319L229.859 103.948C231.259 103.855 232.435 103.603 233.387 103.192C234.339 102.763 235.095 102.203 235.655 101.512C236.234 100.821 236.645 100 236.887 99.048C237.13 98.096 237.251 97.0507 237.251 95.912L237.195 91.012H241.255L241.283 95.716C241.302 98.292 240.798 100.457 239.771 102.212C238.745 103.948 237.149 105.245 234.983 106.104C232.818 106.963 230.018 107.355 226.583 107.28ZM228.907 100.896L227.955 98.376C228.814 98.152 229.458 97.8347 229.887 97.424C230.335 96.9947 230.634 96.416 230.783 95.688C230.933 94.96 231.007 94.0267 231.007 92.888V91.04H234.843V92.804C234.825 94.1293 234.638 95.324 234.283 96.388C233.947 97.4333 233.35 98.3293 232.491 99.076C231.651 99.8227 230.457 100.429 228.907 100.896ZM248.701 108.092L248.141 104.928L254.665 103.696C255.58 103.528 256.308 103.248 256.849 102.856C257.409 102.445 257.829 101.913 258.109 101.26C258.389 100.588 258.585 99.776 258.697 98.824C258.809 97.8533 258.865 96.724 258.865 95.436C258.884 94.148 258.893 92.6733 258.893 91.012H262.897C262.897 92.8413 262.86 94.512 262.785 96.024C262.729 97.5173 262.571 98.8707 262.309 100.084C262.067 101.279 261.656 102.333 261.077 103.248C260.499 104.144 259.696 104.9 258.669 105.516C257.643 106.132 256.327 106.599 254.721 106.916L248.701 108.092ZM252.705 104.48L249.373 91.012H253.433L256.569 104.48H252.705ZM271.442 107V97.34C271.442 96.5933 271.507 95.94 271.638 95.38C271.787 94.82 271.983 94.3813 272.226 94.064H265.058V91.012H278.19V94.064H276.006C275.801 94.5307 275.661 95.072 275.586 95.688C275.511 96.2853 275.474 96.836 275.474 97.34V107H271.442ZM280.934 101.12V98.656V94.288L280.626 91.012H284.658L284.994 94.288V98.656L284.966 100.42L280.934 101.12ZM293.92 107.028L294.284 104.004C295.665 104.303 296.739 104.293 297.504 103.976C298.269 103.64 298.801 103.033 299.1 102.156C299.417 101.279 299.567 100.187 299.548 98.88C299.529 97.704 299.399 96.752 299.156 96.024C298.913 95.296 298.568 94.7733 298.12 94.456C297.672 94.12 297.103 93.952 296.412 93.952C295.908 93.952 295.451 94.0547 295.04 94.26C294.629 94.4653 294.293 94.764 294.032 95.156C293.771 95.548 293.603 96.0147 293.528 96.556L292.604 94.82C292.977 93.4013 293.584 92.3747 294.424 91.74C295.283 91.0867 296.225 90.76 297.252 90.76C298.241 90.76 299.109 90.928 299.856 91.264C300.621 91.5813 301.265 92.076 301.788 92.748C302.311 93.42 302.703 94.2693 302.964 95.296C303.244 96.3227 303.384 97.5173 303.384 98.88C303.403 100.933 303.039 102.651 302.292 104.032C301.564 105.413 300.491 106.384 299.072 106.944C297.653 107.485 295.936 107.513 293.92 107.028ZM287.76 107L289.72 96.22L287.48 91.012H291.68L293.556 96.416L291.82 107H287.76ZM308.413 107L313.453 94.064H305.333V91.012H317.513V94.344L312.473 107H308.413ZM305.333 94.064V86.924H308.973V94.064H305.333Z" fill="#FFF2B4"/>
<path d="M59.4142 130.586C58.6332 131.367 57.3668 131.367 56.5858 130.586L50 124H66L59.4142 130.586Z" fill="#073799"/>
</g>
<defs>
<filter id="filter0_d_100_1746" x="0" y="0" width="391" height="162" filterUnits="userSpaceOnUse" color-interpolation-filters="sRGB">
<feFlood flood-opacity="0" result="BackgroundImageFix"/>
<feColorMatrix in="SourceAlpha" type="matrix" values="0 0 0 0 0 0 0 0 0 0 0 0 0 0 0 0 0 0 127 0" result="hardAlpha"/>
<feOffset/>
<feGaussianBlur stdDeviation="15"/>
<feComposite in2="hardAlpha" operator="out"/>
<feColorMatrix type="matrix" values="0 0 0 0 0.00416667 0 0 0 0 0.00416667 0 0 0 0 0.00416667 0 0 0 0.2 0"/>
<feBlend mode="normal" in2="BackgroundImageFix" result="effect1_dropShadow_100_1746"/>
<feBlend mode="normal" in="SourceGraphic" in2="effect1_dropShadow_100_1746" result="shape"/>
</filter>
</defs>
</svg>
