<svg width="501" height="500" viewBox="0 0 501 500" fill="none" xmlns="http://www.w3.org/2000/svg">
<g clip-path="url(#clip0_105_4561)">
<path d="M149.079 72.0511C147.894 57.0726 146.82 42.8891 145.627 28.7203C145.053 21.8531 145.789 20.381 152.363 18.1581C165.591 13.6904 178.848 9.31093 192.121 4.97565C197.09 3.349 198.68 3.93047 201.771 8.32464C210.09 20.1675 218.445 31.981 226.594 43.9343C229.81 48.6523 233.329 51.7952 239.616 50.5587C243.061 49.8815 246.704 50.095 250.26 50.0582C253.727 50.0214 255.825 48.3505 257.437 45.3328C264.6 31.9221 271.902 18.585 279.182 5.24798C282.134 -0.161917 283.533 -0.765471 289.518 0.662448C303.335 3.96727 317.166 7.24265 330.961 10.6579C336.689 12.0784 337.395 12.785 337.682 18.6366C338.411 33.3353 339.074 48.0414 339.368 62.7475C339.478 68.3414 341.709 71.7861 346.516 74.4506C358.964 81.3473 358.919 81.5386 371.367 74.7671C382.571 68.68 393.694 62.4457 404.861 56.2851C408.711 54.1579 411.302 54.4597 414.401 57.6173C424.795 68.2089 435.16 78.83 445.488 89.4805C449.124 93.227 449.375 94.596 446.725 99.2036C441.056 109.096 435.204 118.885 429.448 128.726C427.284 132.429 424.817 136.02 423.161 139.943C422.263 142.071 422.042 145.059 422.815 147.179C424.317 151.286 426.798 155.025 428.763 158.97C430.603 162.658 433.585 164.218 437.611 164.468C451.561 165.352 465.511 166.353 479.453 167.309C480.675 167.39 481.904 167.42 483.126 167.538C489.044 168.104 489.994 168.833 491.29 174.545C494.448 188.522 497.539 202.514 500.594 216.521C501.647 221.35 500.756 223.197 496.391 225.427C483.295 232.118 470.229 238.867 457.038 245.367C452.216 247.744 449.632 251.012 449.787 256.532C449.89 260.198 449.64 263.908 449.161 267.544C448.572 271.989 450.324 275.059 453.769 277.605C465.798 286.504 477.782 295.454 489.751 304.427C495.25 308.548 495.677 309.91 493.336 316.247C488.588 329.121 483.774 341.965 478.937 354.801C477.34 359.033 475.64 360.027 471.098 359.563C456.221 358.04 441.336 356.553 426.466 354.89C421.792 354.367 418.457 355.868 415.851 359.784C412.87 364.274 409.617 368.587 406.392 372.915C404.051 376.058 403.772 379.216 405.192 382.918C410.551 396.866 415.771 410.865 420.916 424.894C423.331 431.467 422.948 432.586 417.5 436.752C407.371 444.495 397.205 452.202 387.003 459.849C382.24 463.419 380.613 463.323 375.976 459.635C364.463 450.472 352.898 441.367 341.495 432.071C338.382 429.531 335.319 428.869 331.653 430.275C324.91 432.873 318.153 435.442 311.395 438.003C307.921 439.321 306.456 442 305.712 445.481C302.613 460.099 299.389 474.688 296.187 489.291C294.796 495.621 294.045 496.519 287.456 497.107C275.009 498.226 262.539 499.183 250.069 499.948C244.577 500.287 242.943 499.014 241.11 493.736C236.583 480.657 231.96 467.6 227.867 454.388C225.902 448.043 222.508 444.451 215.772 443.501C209.243 442.574 202.809 440.903 196.361 439.439C193.011 438.68 190.42 439.689 188.057 442.052C177.141 452.989 166.172 463.875 155.204 474.769C151.649 478.294 150.22 478.64 145.811 476.196C134.438 469.911 123.131 463.507 111.854 457.059C107.444 454.535 106.811 452.974 108.04 447.984C111.382 434.426 114.592 420.824 118.354 407.377C120.128 401.017 119.406 396.108 114.32 391.574C109.204 387.01 104.787 381.674 99.7001 377.074C98.1174 375.646 95.2098 374.549 93.2001 374.91C81.8785 376.956 70.6452 379.495 59.3825 381.858C54.8259 382.815 50.2545 383.691 45.7126 384.707C42.3559 385.457 40.015 384.368 38.4324 381.313C32.3446 369.559 26.1317 357.863 20.1249 346.072C17.5926 341.103 18.0049 339.646 22.0683 335.789C33.0071 325.404 43.9018 314.974 54.9657 304.714C58.109 301.799 59.1322 298.56 58.3519 294.497C57.0711 287.755 55.8565 281.006 54.6124 274.256C53.891 270.333 51.8814 267.875 47.8548 266.454C33.1838 261.265 18.6747 255.642 4.03319 250.372C1.05188 249.297 -0.324672 247.928 0.0507527 244.616C1.64078 230.742 3.16457 216.86 4.50431 202.963C4.97544 198.032 7.63285 196.052 12.2116 195.242C26.5734 192.703 40.8616 189.759 55.2381 187.352C60.4057 186.483 63.6962 184.165 65.5439 179.292C67.3621 174.486 69.3496 169.716 71.5875 165.094C73.7296 160.67 72.9788 157.02 70.0784 153.214C61.451 141.901 53.0003 130.463 44.5201 119.04C40.0739 113.056 40.0003 112.725 44.5569 106.984C52.9414 96.414 61.5688 86.0432 69.887 75.4295C72.5665 72.0143 75.4006 71.5064 79.1696 73.0594C91.6322 78.1897 104.308 82.8488 116.557 88.4501C124.566 92.1155 131.42 92.2848 138.045 86.0874C139.731 84.5122 141.807 83.3419 143.743 82.0539C147.615 79.4704 150.022 76.2023 149.079 72.0511ZM250.915 395.784C329.769 397.374 399.392 329.592 397.5 245.941C395.785 169.974 331.491 101.971 248.456 103.002C169.713 103.973 104.087 169.518 104.271 249.687C104.47 334.729 174.748 397.16 250.915 395.784Z" fill="black"/>
<path d="M250.283 407.767C337.285 407.767 407.814 337.411 407.814 250.622C407.814 163.833 337.285 93.4772 250.283 93.4772C163.281 93.4772 92.752 163.833 92.752 250.622C92.752 337.411 163.281 407.767 250.283 407.767Z" fill="#FFF2B4"/>
<path d="M129.434 183.34L126.952 163.892H130.42L132.392 180.28C134.115 180.167 135.599 179.849 136.846 179.328C138.115 178.807 139.158 178.093 139.974 177.186C140.79 176.279 141.391 175.169 141.776 173.854C142.161 172.517 142.354 170.998 142.354 169.298L142.286 163.892H145.924L145.958 169.128C145.981 172.301 145.391 174.942 144.19 177.05C143.011 179.158 141.198 180.745 138.75 181.81C136.302 182.853 133.197 183.363 129.434 183.34ZM131.236 175.826L130.386 173.446C131.519 173.015 132.403 172.517 133.038 171.95C133.673 171.361 134.115 170.601 134.364 169.672C134.636 168.72 134.783 167.519 134.806 166.068V163.96H138.24V166C138.217 167.655 137.979 169.105 137.526 170.352C137.095 171.599 136.37 172.664 135.35 173.548C134.353 174.432 132.981 175.191 131.236 175.826ZM149.948 175.86V173.038V167.87L149.54 163.892H153.144L153.586 167.87V173.038L153.552 175.18L149.948 175.86ZM166.685 183V170.08C166.685 168.811 166.402 167.927 165.835 167.428C165.291 166.929 164.543 166.68 163.591 166.68H157.233V163.892H164.509C165.642 163.892 166.64 164.107 167.501 164.538C168.385 164.946 169.065 165.615 169.541 166.544C170.04 167.473 170.289 168.709 170.289 170.25V183H166.685ZM157.233 183V180.212H172.635V183H157.233ZM175.124 183V180.212H180.02C181.131 180.212 182.037 179.997 182.74 179.566C183.443 179.113 183.964 178.467 184.304 177.628C184.644 176.767 184.814 175.758 184.814 174.602V172.29C184.814 171.111 184.644 170.103 184.304 169.264C183.964 168.425 183.443 167.791 182.74 167.36C182.037 166.907 181.131 166.68 180.02 166.68H175.124V163.892H180.904C182.536 163.892 183.907 164.232 185.018 164.912C186.151 165.592 187.001 166.578 187.568 167.87C188.157 169.139 188.452 170.669 188.452 172.46V174.432C188.452 176.245 188.157 177.798 187.568 179.09C187.001 180.359 186.151 181.334 185.018 182.014C183.907 182.671 182.536 183 180.904 183H175.124ZM207.824 183V170.08C207.824 168.811 207.54 167.927 206.974 167.428C206.43 166.929 205.682 166.68 204.73 166.68H198.372V163.892H205.648C206.781 163.892 207.778 164.107 208.64 164.538C209.524 164.946 210.204 165.615 210.68 166.544C211.178 167.473 211.428 168.709 211.428 170.25V183H207.824ZM198.372 183V180.212H213.774V183H198.372ZM227.823 183L216.705 163.892H220.377L231.495 183H227.823ZM216.161 183V180.212H229.353L230.407 183H216.161ZM226.565 175.214L224.525 172.086L227.959 163.892H231.563L226.565 175.214ZM241.734 183.068L242.074 180.28C243.865 180.665 245.293 180.631 246.358 180.178C247.423 179.725 248.183 178.897 248.636 177.696C249.112 176.472 249.327 174.908 249.282 173.004C249.259 171.395 249.055 170.125 248.67 169.196C248.307 168.244 247.797 167.564 247.14 167.156C246.505 166.748 245.746 166.544 244.862 166.544C244.069 166.544 243.389 166.714 242.822 167.054C242.255 167.371 241.802 167.813 241.462 168.38C241.122 168.947 240.884 169.581 240.748 170.284L239.83 168.584C240.261 166.861 240.997 165.615 242.04 164.844C243.105 164.051 244.273 163.654 245.542 163.654C246.607 163.654 247.571 163.835 248.432 164.198C249.316 164.538 250.075 165.082 250.71 165.83C251.345 166.578 251.832 167.553 252.172 168.754C252.535 169.933 252.727 171.349 252.75 173.004C252.795 175.565 252.387 177.685 251.526 179.362C250.665 181.039 249.407 182.207 247.752 182.864C246.097 183.521 244.091 183.589 241.734 183.068ZM234.934 183L237.382 169.842L234.73 163.892H238.47L240.816 169.978L238.572 183H234.934ZM262.851 183.068L263.191 180.28C264.982 180.665 266.41 180.631 267.475 180.178C268.541 179.725 269.3 178.897 269.753 177.696C270.229 176.472 270.445 174.908 270.399 173.004C270.377 171.395 270.173 170.125 269.787 169.196C269.425 168.244 268.915 167.564 268.257 167.156C267.623 166.748 266.863 166.544 265.979 166.544C265.186 166.544 264.506 166.714 263.939 167.054C263.373 167.371 262.919 167.813 262.579 168.38C262.239 168.947 262.001 169.581 261.865 170.284L260.947 168.584C261.378 166.861 262.115 165.615 263.157 164.844C264.223 164.051 265.39 163.654 266.659 163.654C267.725 163.654 268.688 163.835 269.549 164.198C270.433 164.538 271.193 165.082 271.827 165.83C272.462 166.578 272.949 167.553 273.289 168.754C273.652 169.933 273.845 171.349 273.867 173.004C273.913 175.565 273.505 177.685 272.643 179.362C271.782 181.039 270.524 182.207 268.869 182.864C267.215 183.521 265.209 183.589 262.851 183.068ZM256.051 183L258.499 169.842L255.847 163.892H259.587L261.933 169.978L259.689 183H256.051ZM292.747 183V170.08C292.747 168.811 292.475 167.927 291.931 167.428C291.387 166.929 290.639 166.68 289.687 166.68H283.397V163.892H290.605C291.738 163.892 292.736 164.107 293.597 164.538C294.458 164.946 295.138 165.615 295.637 166.544C296.136 167.473 296.385 168.709 296.385 170.25V183H292.747ZM309.459 183V170.08C309.459 168.811 309.175 167.927 308.609 167.428C308.065 166.929 307.317 166.68 306.365 166.68H300.007V163.892H307.283C308.416 163.892 309.413 164.107 310.275 164.538C311.159 164.946 311.839 165.615 312.315 166.544C312.813 167.473 313.063 168.709 313.063 170.25V183H309.459ZM300.007 183V180.212H315.409V183H300.007ZM317.727 184.122L317.217 181.266L324.085 179.974C325.309 179.725 326.307 179.362 327.077 178.886C327.848 178.387 328.437 177.73 328.845 176.914C329.276 176.098 329.582 175.101 329.763 173.922C329.945 172.721 330.047 171.293 330.069 169.638C330.092 167.983 330.103 166.068 330.103 163.892H333.707C333.707 166.249 333.662 168.357 333.571 170.216C333.481 172.075 333.277 173.718 332.959 175.146C332.642 176.551 332.143 177.764 331.463 178.784C330.783 179.804 329.843 180.654 328.641 181.334C327.463 182.014 325.955 182.524 324.119 182.864L317.727 184.122ZM323.065 180.484L318.781 163.892H322.419L326.533 180.484H323.065ZM343.9 183.068L344.24 180.28C346.031 180.665 347.459 180.631 348.524 180.178C349.589 179.725 350.349 178.897 350.802 177.696C351.278 176.472 351.493 174.908 351.448 173.004C351.425 171.395 351.221 170.125 350.836 169.196C350.473 168.244 349.963 167.564 349.306 167.156C348.671 166.748 347.912 166.544 347.028 166.544C346.235 166.544 345.555 166.714 344.988 167.054C344.421 167.371 343.968 167.813 343.628 168.38C343.288 168.947 343.05 169.581 342.914 170.284L341.996 168.584C342.427 166.861 343.163 165.615 344.206 164.844C345.271 164.051 346.439 163.654 347.708 163.654C348.773 163.654 349.737 163.835 350.598 164.198C351.482 164.538 352.241 165.082 352.876 165.83C353.511 166.578 353.998 167.553 354.338 168.754C354.701 169.933 354.893 171.349 354.916 173.004C354.961 175.565 354.553 177.685 353.692 179.362C352.831 181.039 351.573 182.207 349.918 182.864C348.263 183.521 346.257 183.589 343.9 183.068ZM337.1 183L339.548 169.842L336.896 163.892H340.636L342.982 169.978L340.738 183H337.1ZM367.431 183V170.08C367.431 168.811 367.148 167.927 366.581 167.428C366.037 166.929 365.289 166.68 364.337 166.68H357.979V163.892H365.255C366.389 163.892 367.386 164.107 368.247 164.538C369.131 164.946 369.811 165.615 370.287 166.544C370.786 167.473 371.035 168.709 371.035 170.25V183H367.431ZM357.979 183V180.212H373.381V183H357.979ZM116.214 219.86V217.038V211.87L115.806 207.892H119.41L119.852 211.87V217.038L119.818 219.18L116.214 219.86ZM125.811 227.34L123.839 210.68L127.273 208.946L129.007 224.076C129.959 223.985 130.831 223.838 131.625 223.634C132.418 223.407 133.121 223.09 133.733 222.682C134.367 222.274 134.889 221.764 135.297 221.152C135.727 220.54 136.045 219.803 136.249 218.942C136.453 218.058 136.532 217.038 136.487 215.882V214.964C136.487 214.125 136.351 213.389 136.079 212.754C135.807 212.119 135.41 211.621 134.889 211.258C134.367 210.873 133.733 210.68 132.985 210.68H123.839L123.499 207.892H133.291C135.421 207.892 137.053 208.527 138.187 209.796C139.343 211.065 139.955 212.765 140.023 214.896L140.057 215.95C140.125 218.035 139.819 219.792 139.139 221.22C138.459 222.648 137.473 223.793 136.181 224.654C134.889 225.515 133.359 226.161 131.591 226.592C129.823 227 127.896 227.249 125.811 227.34ZM155.698 227V214.42C155.698 211.927 154.666 210.68 152.604 210.68H143.764V207.892H153.522C154.7 207.892 155.72 208.13 156.582 208.606C157.466 209.082 158.134 209.819 158.588 210.816C159.064 211.791 159.302 213.049 159.302 214.59V227H155.698ZM143.764 227V209.354H147.402V227H143.764ZM163.761 219.86V217.038V211.87L163.353 207.892H166.957L167.399 211.87V217.038L167.365 219.18L163.761 219.86ZM178.702 219.86V217.038V211.87L178.294 207.892H181.898L182.34 211.87V217.038L182.306 219.18L178.702 219.86ZM185.953 227V224.212H191.461V213.57C191.461 212.527 191.257 211.791 190.849 211.36C190.441 210.929 189.874 210.669 189.149 210.578L186.837 210.238L187.313 207.518L190.815 207.994C192.198 208.198 193.252 208.776 193.977 209.728C194.702 210.657 195.065 211.904 195.065 213.468V227H185.953ZM201.153 227.34L198.671 207.892H202.139L204.111 224.28C205.833 224.167 207.318 223.849 208.565 223.328C209.834 222.807 210.877 222.093 211.693 221.186C212.509 220.279 213.109 219.169 213.495 217.854C213.88 216.517 214.073 214.998 214.073 213.298L214.005 207.892H217.643L217.677 213.128C217.699 216.301 217.11 218.942 215.909 221.05C214.73 223.158 212.917 224.745 210.469 225.81C208.021 226.853 204.915 227.363 201.153 227.34ZM202.955 219.826L202.105 217.446C203.238 217.015 204.122 216.517 204.757 215.95C205.391 215.361 205.833 214.601 206.083 213.672C206.355 212.72 206.502 211.519 206.525 210.068V207.96H209.959V210C209.936 211.655 209.698 213.105 209.245 214.352C208.814 215.599 208.089 216.664 207.069 217.548C206.071 218.432 204.7 219.191 202.955 219.826ZM230.269 227V214.08C230.269 212.811 229.986 211.927 229.419 211.428C228.875 210.929 228.127 210.68 227.175 210.68H220.817V207.892H228.093C229.226 207.892 230.224 208.107 231.085 208.538C231.969 208.946 232.649 209.615 233.125 210.544C233.624 211.473 233.873 212.709 233.873 214.25V227H230.269ZM220.817 227V224.212H236.219V227H220.817ZM258.163 227V214.42C258.163 211.927 257.131 210.68 255.069 210.68H246.229V207.892H255.987C257.165 207.892 258.185 208.13 259.047 208.606C259.931 209.082 260.599 209.819 261.053 210.816C261.529 211.791 261.767 213.049 261.767 214.59V227H258.163ZM246.229 227V209.354H249.867V227H246.229ZM267.654 227.34L265.376 207.892H269.014L270.85 224.076C272.051 223.963 273.128 223.725 274.08 223.362C275.032 222.977 275.836 222.455 276.494 221.798C277.174 221.118 277.684 220.291 278.024 219.316C278.364 218.319 278.511 217.151 278.466 215.814V214.862C278.466 214.069 278.33 213.355 278.058 212.72C277.786 212.085 277.355 211.575 276.766 211.19C276.176 210.782 275.428 210.555 274.522 210.51L272.856 210.408L273.128 207.552L275.1 207.688C276.414 207.756 277.57 208.051 278.568 208.572C279.588 209.071 280.392 209.807 280.982 210.782C281.594 211.734 281.922 212.958 281.968 214.454L282.002 215.406C282.07 217.469 281.764 219.237 281.084 220.71C280.426 222.183 279.452 223.396 278.16 224.348C276.868 225.277 275.326 225.991 273.536 226.49C271.745 226.966 269.784 227.249 267.654 227.34ZM287.248 227.34L284.766 207.892H288.234L290.206 224.28C291.929 224.167 293.414 223.849 294.66 223.328C295.93 222.807 296.972 222.093 297.788 221.186C298.604 220.279 299.205 219.169 299.59 217.854C299.976 216.517 300.168 214.998 300.168 213.298L300.1 207.892H303.738L303.772 213.128C303.795 216.301 303.206 218.942 302.004 221.05C300.826 223.158 299.012 224.745 296.564 225.81C294.116 226.853 291.011 227.363 287.248 227.34ZM289.05 219.826L288.2 217.446C289.334 217.015 290.218 216.517 290.852 215.95C291.487 215.361 291.929 214.601 292.178 213.672C292.45 212.72 292.598 211.519 292.62 210.068V207.96H296.054V210C296.032 211.655 295.794 213.105 295.34 214.352C294.91 215.599 294.184 216.664 293.164 217.548C292.167 218.432 290.796 219.191 289.05 219.826ZM323.171 227V214.08C323.171 212.811 322.888 211.927 322.321 211.428C321.777 210.929 321.029 210.68 320.077 210.68H313.719V207.892H320.995C322.129 207.892 323.126 208.107 323.987 208.538C324.871 208.946 325.551 209.615 326.027 210.544C326.526 211.473 326.775 212.709 326.775 214.25V227H323.171ZM313.719 227V224.212H329.121V227H313.719ZM343.17 227L332.052 207.892H335.724L346.842 227H343.17ZM331.508 227V224.212H344.7L345.754 227H331.508ZM341.912 219.214L339.872 216.086L343.306 207.892H346.91L341.912 219.214ZM357.082 227.068L357.422 224.28C359.212 224.665 360.64 224.631 361.706 224.178C362.771 223.725 363.53 222.897 363.984 221.696C364.46 220.472 364.675 218.908 364.63 217.004C364.607 215.395 364.403 214.125 364.018 213.196C363.655 212.244 363.145 211.564 362.488 211.156C361.853 210.748 361.094 210.544 360.21 210.544C359.416 210.544 358.736 210.714 358.17 211.054C357.603 211.371 357.15 211.813 356.81 212.38C356.47 212.947 356.232 213.581 356.096 214.284L355.178 212.584C355.608 210.861 356.345 209.615 357.388 208.844C358.453 208.051 359.62 207.654 360.89 207.654C361.955 207.654 362.918 207.835 363.78 208.198C364.664 208.538 365.423 209.082 366.058 209.83C366.692 210.578 367.18 211.553 367.52 212.754C367.882 213.933 368.075 215.349 368.098 217.004C368.143 219.565 367.735 221.685 366.874 223.362C366.012 225.039 364.754 226.207 363.1 226.864C361.445 227.521 359.439 227.589 357.082 227.068ZM350.282 227L352.73 213.842L350.078 207.892H353.818L356.164 213.978L353.92 227H350.282ZM374.799 227L381.157 210.68H370.923V207.892H384.795V210.918L378.437 227H374.799ZM370.923 210.68V202.622H374.187V210.68H370.923ZM115.551 271.51L115.211 268.994C116.118 268.903 116.809 268.722 117.285 268.45C117.761 268.155 118.09 267.747 118.271 267.226C118.453 266.682 118.543 266.013 118.543 265.22V251.892H127.723C128.857 251.892 129.854 252.107 130.715 252.538C131.577 252.946 132.257 253.615 132.755 254.544C133.254 255.473 133.503 256.709 133.503 258.25V271H129.865V258.08C129.865 256.811 129.593 255.927 129.049 255.428C128.505 254.929 127.757 254.68 126.805 254.68H122.147V264.778C122.147 266.297 121.909 267.532 121.433 268.484C120.98 269.413 120.266 270.116 119.291 270.592C118.339 271.068 117.093 271.374 115.551 271.51ZM154.351 271H150.475L143.301 260.154L139.935 271H136.501L140.241 259.304L141.193 256.924L138.065 251.892H141.737L144.627 256.516L147.483 260.8L148.333 257.842L150.067 251.892H153.535L149.591 263.928L154.351 271ZM166.188 271V258.658C166.188 257.774 166.267 257.003 166.426 256.346C166.607 255.666 166.845 255.111 167.14 254.68H163.876V251.892H173.09V254.68H170.472C170.155 255.247 169.962 255.904 169.894 256.652C169.826 257.377 169.792 258.046 169.792 258.658V271H166.188ZM177.109 263.86V261.038V255.87L176.701 251.892H180.305L180.747 255.87V261.038L180.713 263.18L177.109 263.86ZM186.807 271V258.658C186.807 257.774 186.887 257.003 187.045 256.346C187.227 255.666 187.465 255.111 187.759 254.68H184.495V251.892H193.709V254.68H191.091C190.774 255.247 190.581 255.904 190.513 256.652C190.445 257.377 190.411 258.046 190.411 258.658V271H186.807ZM208.744 271V258.08C208.744 256.811 208.46 255.927 207.894 255.428C207.35 254.929 206.602 254.68 205.65 254.68H197.32V251.892H206.568C207.701 251.892 208.698 252.107 209.56 252.538C210.444 252.946 211.124 253.615 211.6 254.544C212.098 255.473 212.348 256.709 212.348 258.25V271H208.744ZM197.218 271V261.786L197.728 259.508H200.822V261.786V271H197.218ZM219.475 271L225.833 254.68H215.599V251.892H229.471V254.918L223.113 271H219.475ZM215.599 254.68V246.622H218.863V254.68H215.599ZM240.028 277.8V255.87L239.62 251.892H243.224L243.666 255.87V277.8H240.028ZM246.803 271.51L246.463 268.994C247.37 268.903 248.061 268.722 248.537 268.45C249.013 268.155 249.342 267.747 249.523 267.226C249.705 266.682 249.795 266.013 249.795 265.22V251.892H258.975C260.109 251.892 261.106 252.107 261.967 252.538C262.829 252.946 263.509 253.615 264.007 254.544C264.506 255.473 264.755 256.709 264.755 258.25V271H261.117V258.08C261.117 256.811 260.845 255.927 260.301 255.428C259.757 254.929 259.009 254.68 258.057 254.68H253.399V264.778C253.399 266.297 253.161 267.532 252.685 268.484C252.232 269.413 251.518 270.116 250.543 270.592C249.591 271.068 248.345 271.374 246.803 271.51ZM269.181 263.86V261.038V255.87L268.773 251.892H272.377L272.819 255.87V261.038L272.785 263.18L269.181 263.86ZM276.432 271V268.212H281.94V257.57C281.94 256.527 281.736 255.791 281.328 255.36C280.92 254.929 280.353 254.669 279.628 254.578L277.316 254.238L277.792 251.518L281.294 251.994C282.676 252.198 283.73 252.776 284.456 253.728C285.181 254.657 285.544 255.904 285.544 257.468V271H276.432ZM307.822 271V258.08C307.822 256.811 307.538 255.927 306.972 255.428C306.428 254.929 305.68 254.68 304.728 254.68H296.398V251.892H305.646C306.779 251.892 307.776 252.107 308.638 252.538C309.522 252.946 310.202 253.615 310.678 254.544C311.176 255.473 311.426 256.709 311.426 258.25V271H307.822ZM296.296 271V261.786L296.806 259.508H299.9V261.786V271H296.296ZM323.925 271V258.08C323.925 256.811 323.653 255.927 323.109 255.428C322.565 254.929 321.817 254.68 320.865 254.68H314.575V251.892H321.783C322.916 251.892 323.913 252.107 324.775 252.538C325.636 252.946 326.316 253.615 326.815 254.544C327.313 255.473 327.563 256.709 327.563 258.25V271H323.925ZM340.636 271V258.08C340.636 256.811 340.353 255.927 339.786 255.428C339.242 254.929 338.494 254.68 337.542 254.68H331.184V251.892H338.46C339.594 251.892 340.591 252.107 341.452 252.538C342.336 252.946 343.016 253.615 343.492 254.544C343.991 255.473 344.24 256.709 344.24 258.25V271H340.636ZM331.184 271V268.212H346.586V271H331.184ZM348.905 272.122L348.395 269.266L355.263 267.974C356.487 267.725 357.485 267.362 358.255 266.886C359.026 266.387 359.615 265.73 360.023 264.914C360.454 264.098 360.76 263.101 360.941 261.922C361.123 260.721 361.225 259.293 361.247 257.638C361.27 255.983 361.281 254.068 361.281 251.892H364.885C364.885 254.249 364.84 256.357 364.749 258.216C364.659 260.075 364.455 261.718 364.137 263.146C363.82 264.551 363.321 265.764 362.641 266.784C361.961 267.804 361.021 268.654 359.819 269.334C358.641 270.014 357.133 270.524 355.297 270.864L348.905 272.122ZM354.243 268.484L349.959 251.892H353.597L357.711 268.484H354.243ZM379.906 271V258.08C379.906 256.811 379.622 255.927 379.056 255.428C378.512 254.929 377.764 254.68 376.812 254.68H368.482V251.892H377.73C378.863 251.892 379.86 252.107 380.722 252.538C381.606 252.946 382.286 253.615 382.762 254.544C383.26 255.473 383.51 256.709 383.51 258.25V271H379.906ZM368.38 271V261.786L368.89 259.508H371.984V261.786V271H368.38ZM163.794 307.86V305.038V299.87L163.386 295.892H166.99L167.432 299.87V305.038L167.398 307.18L163.794 307.86ZM179.307 315V302.658C179.307 301.774 179.386 301.003 179.545 300.346C179.726 299.666 179.964 299.111 180.259 298.68H171.079V295.892H186.243V298.68H183.659C183.364 299.247 183.16 299.904 183.047 300.652C182.956 301.377 182.911 302.046 182.911 302.658V315H179.307ZM189.136 315V312.212H194.032C195.142 312.212 196.049 311.997 196.752 311.566C197.454 311.113 197.976 310.467 198.316 309.628C198.656 308.767 198.826 307.758 198.826 306.602V304.29C198.826 303.111 198.656 302.103 198.316 301.264C197.976 300.425 197.454 299.791 196.752 299.36C196.049 298.907 195.142 298.68 194.032 298.68H189.136V295.892H194.916C196.548 295.892 197.919 296.232 199.03 296.912C200.163 297.592 201.013 298.578 201.58 299.87C202.169 301.139 202.464 302.669 202.464 304.46V306.432C202.464 308.245 202.169 309.798 201.58 311.09C201.013 312.359 200.163 313.334 199.03 314.014C197.919 314.671 196.548 315 194.916 315H189.136ZM222.346 321.8V302.08C222.346 300.811 222.062 299.927 221.496 299.428C220.952 298.929 220.215 298.68 219.286 298.68H212.486V295.892H220.17C221.303 295.892 222.3 296.107 223.162 296.538C224.046 296.946 224.726 297.615 225.202 298.544C225.7 299.473 225.95 300.709 225.95 302.25V321.8H222.346ZM230.466 315V299.87L230.058 295.892H233.662L234.104 299.87V315H230.466ZM237.241 315.51L236.901 312.994C237.807 312.903 238.499 312.722 238.975 312.45C239.451 312.155 239.779 311.747 239.961 311.226C240.142 310.682 240.233 310.013 240.233 309.22V295.892H249.413C250.546 295.892 251.543 296.107 252.405 296.538C253.266 296.946 253.946 297.615 254.445 298.544C254.943 299.473 255.193 300.709 255.193 302.25V315H251.555V302.08C251.555 300.811 251.283 299.927 250.739 299.428C250.195 298.929 249.447 298.68 248.495 298.68H243.837V308.778C243.837 310.297 243.599 311.532 243.123 312.484C242.669 313.413 241.955 314.116 240.981 314.592C240.029 315.068 238.782 315.374 237.241 315.51ZM265.065 315.51L264.725 312.994C265.632 312.903 266.323 312.722 266.799 312.45C267.275 312.155 267.604 311.747 267.785 311.226C267.966 310.682 268.057 310.013 268.057 309.22V295.892H277.237C278.37 295.892 279.368 296.107 280.229 296.538C281.09 296.946 281.77 297.615 282.269 298.544C282.768 299.473 283.017 300.709 283.017 302.25V315H279.379V302.08C279.379 300.811 279.107 299.927 278.563 299.428C278.019 298.929 277.271 298.68 276.319 298.68H271.661V308.778C271.661 310.297 271.423 311.532 270.947 312.484C270.494 313.413 269.78 314.116 268.805 314.592C267.853 315.068 266.606 315.374 265.065 315.51ZM287.443 307.86V305.038V299.87L287.035 295.892H290.639L291.081 299.87V305.038L291.047 307.18L287.443 307.86ZM302.955 315V302.658C302.955 301.774 303.035 301.003 303.193 300.346C303.375 299.666 303.613 299.111 303.907 298.68H294.727V295.892H309.891V298.68H307.307C307.013 299.247 306.809 299.904 306.695 300.652C306.605 301.377 306.559 302.046 306.559 302.658V315H302.955ZM313.872 307.86V305.038V299.87L313.464 295.892H317.068L317.51 299.87V305.038L317.476 307.18L313.872 307.86ZM333.023 315V302.08C333.023 300.811 332.74 299.927 332.173 299.428C331.629 298.929 330.881 298.68 329.929 298.68H321.599V295.892H330.847C331.98 295.892 332.978 296.107 333.839 296.538C334.723 296.946 335.403 297.615 335.879 298.544C336.378 299.473 336.627 300.709 336.627 302.25V315H333.023ZM321.497 315V305.786L322.007 303.508H325.101V305.786V315H321.497ZM214.77 359V346.08C214.77 344.811 214.487 343.927 213.92 343.428C213.376 342.929 212.628 342.68 211.676 342.68H203.346V339.892H212.594C213.727 339.892 214.725 340.107 215.586 340.538C216.47 340.946 217.15 341.615 217.626 342.544C218.125 343.473 218.374 344.709 218.374 346.25V359H214.77ZM203.244 359V349.786L203.754 347.508H206.848V349.786V359H203.244ZM221.455 360.122L220.945 357.266L227.813 355.974C229.037 355.725 230.034 355.362 230.805 354.886C231.576 354.387 232.165 353.73 232.573 352.914C233.004 352.098 233.31 351.101 233.491 349.922C233.672 348.721 233.774 347.293 233.797 345.638C233.82 343.983 233.831 342.068 233.831 339.892H237.435C237.435 342.249 237.39 344.357 237.299 346.216C237.208 348.075 237.004 349.718 236.687 351.146C236.37 352.551 235.871 353.764 235.191 354.784C234.511 355.804 233.57 356.654 232.369 357.334C231.19 358.014 229.683 358.524 227.847 358.864L221.455 360.122ZM226.793 356.484L222.509 339.892H226.147L230.261 356.484H226.793ZM241.44 351.86V349.038V343.87L241.032 339.892H244.636L245.078 343.87V349.038L245.044 351.18L241.44 351.86ZM251.036 359.34L249.064 342.68L252.498 340.946L254.232 356.076C255.184 355.985 256.057 355.838 256.85 355.634C257.644 355.407 258.346 355.09 258.958 354.682C259.593 354.274 260.114 353.764 260.522 353.152C260.953 352.54 261.27 351.803 261.474 350.942C261.678 350.058 261.758 349.038 261.712 347.882V346.964C261.712 346.125 261.576 345.389 261.304 344.754C261.032 344.119 260.636 343.621 260.114 343.258C259.593 342.873 258.958 342.68 258.21 342.68H249.064L248.724 339.892H258.516C260.647 339.892 262.279 340.527 263.412 341.796C264.568 343.065 265.18 344.765 265.248 346.896L265.282 347.95C265.35 350.035 265.044 351.792 264.364 353.22C263.684 354.648 262.698 355.793 261.406 356.654C260.114 357.515 258.584 358.161 256.816 358.592C255.048 359 253.122 359.249 251.036 359.34ZM268.479 359V356.212H273.987V345.57C273.987 344.527 273.783 343.791 273.375 343.36C272.967 342.929 272.401 342.669 271.675 342.578L269.363 342.238L269.839 339.518L273.341 339.994C274.724 340.198 275.778 340.776 276.503 341.728C277.229 342.657 277.591 343.904 277.591 345.468V359H268.479ZM293.063 359V346.08C293.063 344.811 292.78 343.927 292.213 343.428C291.669 342.929 290.921 342.68 289.969 342.68H281.639V339.892H290.887C292.02 339.892 293.018 340.107 293.879 340.538C294.763 340.946 295.443 341.615 295.919 342.544C296.418 343.473 296.667 344.709 296.667 346.25V359H293.063ZM281.537 359V349.786L282.047 347.508H285.141V349.786V359H281.537Z" fill="black"/>
</g>
<defs>
<clipPath id="clip0_105_4561">
<rect width="501" height="500" fill="white"/>
</clipPath>
</defs>
</svg>
