<svg width="501" height="500" viewBox="0 0 501 500" fill="none" xmlns="http://www.w3.org/2000/svg">
<g clip-path="url(#clip0_105_4887)">
<path d="M149.079 72.051C147.894 57.0726 146.82 42.8891 145.627 28.7203C145.053 21.853 145.789 20.3809 152.363 18.1581C165.591 13.6903 178.848 9.31087 192.121 4.97559C197.09 3.34894 198.68 3.93041 201.771 8.32457C210.09 20.1675 218.445 31.9809 226.594 43.9342C229.81 48.6523 233.329 51.7952 239.616 50.5586C243.061 49.8815 246.704 50.0949 250.26 50.0581C253.727 50.0213 255.825 48.3505 257.437 45.3327C264.6 31.922 271.902 18.585 279.182 5.24792C282.134 -0.161978 283.533 -0.765532 289.518 0.662387C303.335 3.96721 317.166 7.24259 330.961 10.6578C336.689 12.0784 337.395 12.785 337.682 18.6365C338.411 33.3352 339.074 48.0413 339.368 62.7474C339.478 68.3414 341.709 71.786 346.516 74.4505C358.964 81.3472 358.919 81.5386 371.367 74.767C382.571 68.6799 393.694 62.4457 404.861 56.285C408.711 54.1579 411.302 54.4596 414.401 57.6172C424.795 68.2089 435.16 78.8299 445.488 89.4805C449.124 93.2269 449.375 94.5959 446.725 99.2036C441.056 109.096 435.204 118.885 429.448 128.726C427.284 132.428 424.817 136.02 423.161 139.943C422.263 142.071 422.042 145.059 422.815 147.179C424.317 151.286 426.798 155.025 428.763 158.97C430.603 162.658 433.585 164.218 437.611 164.468C451.561 165.352 465.511 166.353 479.453 167.309C480.675 167.39 481.904 167.42 483.126 167.538C489.044 168.104 489.994 168.833 491.29 174.545C494.448 188.522 497.539 202.514 500.594 216.521C501.647 221.35 500.756 223.197 496.391 225.427C483.295 232.118 470.229 238.867 457.038 245.367C452.216 247.744 449.632 251.012 449.787 256.532C449.89 260.198 449.64 263.907 449.161 267.543C448.572 271.989 450.324 275.058 453.769 277.605C465.798 286.504 477.782 295.454 489.751 304.427C495.25 308.548 495.677 309.91 493.336 316.247C488.588 329.121 483.774 341.965 478.937 354.801C477.34 359.033 475.64 360.027 471.098 359.563C456.221 358.04 441.336 356.553 426.466 354.889C421.792 354.367 418.457 355.868 415.851 359.784C412.87 364.274 409.617 368.587 406.392 372.915C404.051 376.058 403.772 379.216 405.192 382.918C410.551 396.866 415.771 410.865 420.916 424.894C423.331 431.467 422.948 432.586 417.5 436.752C407.371 444.495 397.205 452.201 387.003 459.849C382.24 463.419 380.613 463.323 375.976 459.635C364.463 450.472 352.898 441.367 341.495 432.071C338.382 429.531 335.319 428.869 331.653 430.275C324.91 432.873 318.153 435.442 311.395 438.003C307.921 439.321 306.456 442 305.712 445.481C302.613 460.099 299.389 474.688 296.187 489.291C294.796 495.621 294.045 496.518 287.456 497.107C275.009 498.226 262.539 499.183 250.069 499.948C244.577 500.287 242.943 499.014 241.11 493.736C236.583 480.657 231.96 467.599 227.867 454.388C225.902 448.043 222.508 444.451 215.772 443.501C209.243 442.574 202.809 440.903 196.361 439.439C193.011 438.68 190.42 439.689 188.057 442.051C177.141 452.989 166.172 463.875 155.204 474.768C151.649 478.294 150.22 478.64 145.811 476.196C134.438 469.911 123.131 463.507 111.854 457.059C107.444 454.535 106.811 452.974 108.04 447.984C111.382 434.426 114.592 420.824 118.354 407.377C120.128 401.017 119.406 396.108 114.32 391.574C109.204 387.01 104.787 381.674 99.7001 377.074C98.1174 375.646 95.2098 374.549 93.2001 374.91C81.8785 376.956 70.6452 379.495 59.3825 381.858C54.8259 382.815 50.2545 383.691 45.7126 384.706C42.3559 385.457 40.015 384.368 38.4324 381.313C32.3446 369.559 26.1317 357.863 20.1249 346.072C17.5926 341.103 18.0049 339.646 22.0683 335.789C33.0071 325.404 43.9018 314.974 54.9657 304.714C58.109 301.799 59.1322 298.56 58.3519 294.497C57.0711 287.755 55.8565 281.006 54.6124 274.256C53.891 270.333 51.8814 267.875 47.8548 266.454C33.1838 261.265 18.6747 255.642 4.03319 250.372C1.05188 249.297 -0.324672 247.928 0.0507527 244.616C1.64078 230.741 3.16457 216.86 4.50431 202.963C4.97544 198.032 7.63285 196.052 12.2116 195.242C26.5734 192.703 40.8616 189.759 55.2381 187.352C60.4057 186.483 63.6962 184.165 65.5439 179.292C67.3621 174.486 69.3496 169.716 71.5875 165.094C73.7296 160.67 72.9788 157.02 70.0784 153.214C61.451 141.901 53.0003 130.463 44.5201 119.04C40.0739 113.056 40.0003 112.725 44.5569 106.984C52.9414 96.414 61.5688 86.0432 69.887 75.4294C72.5665 72.0142 75.4006 71.5063 79.1696 73.0594C91.6322 78.1896 104.308 82.8487 116.557 88.45C124.566 92.1155 131.42 92.2848 138.045 86.0873C139.731 84.5122 141.807 83.3419 143.743 82.0538C147.615 79.4703 150.022 76.2023 149.079 72.051ZM250.915 395.784C329.769 397.374 399.392 329.592 397.5 245.941C395.785 169.974 331.491 101.971 248.456 103.002C169.713 103.973 104.087 169.518 104.271 249.687C104.47 334.729 174.748 397.16 250.915 395.784Z" fill="black"/>
<path d="M250.283 407.767C337.285 407.767 407.814 337.411 407.814 250.622C407.814 163.833 337.285 93.4773 250.283 93.4773C163.281 93.4773 92.752 163.833 92.752 250.622C92.752 337.411 163.281 407.767 250.283 407.767Z" fill="#073799"/>
<path d="M166.466 205L172.824 188.68H162.59V185.892H176.462V188.918L170.104 205H166.466ZM162.59 188.68V180.622H165.854V188.68H162.59ZM181.845 205.34L179.363 185.892H182.831L184.803 202.28C186.526 202.167 188.01 201.849 189.257 201.328C190.526 200.807 191.569 200.093 192.385 199.186C193.201 198.279 193.802 197.169 194.187 195.854C194.572 194.517 194.765 192.998 194.765 191.298L194.697 185.892H198.335L198.369 191.128C198.392 194.301 197.802 196.942 196.601 199.05C195.422 201.158 193.609 202.745 191.161 203.81C188.713 204.853 185.608 205.363 181.845 205.34ZM183.647 197.826L182.797 195.446C183.93 195.015 184.814 194.517 185.449 193.95C186.084 193.361 186.526 192.601 186.775 191.672C187.047 190.72 187.194 189.519 187.217 188.068V185.96H190.651V188C190.628 189.655 190.39 191.105 189.937 192.352C189.506 193.599 188.781 194.664 187.761 195.548C186.764 196.432 185.392 197.191 183.647 197.826ZM217.326 205V192.08C217.326 190.811 217.054 189.927 216.51 189.428C215.966 188.929 215.218 188.68 214.266 188.68H207.976V185.892H215.184C216.317 185.892 217.315 186.107 218.176 186.538C219.037 186.946 219.717 187.615 220.216 188.544C220.715 189.473 220.964 190.709 220.964 192.25V205H217.326ZM234.038 205V192.08C234.038 190.811 233.754 189.927 233.188 189.428C232.644 188.929 231.896 188.68 230.944 188.68H224.586V185.892H231.862C232.995 185.892 233.992 186.107 234.854 186.538C235.738 186.946 236.418 187.615 236.894 188.544C237.392 189.473 237.642 190.709 237.642 192.25V205H234.038ZM224.586 205V202.212H239.988V205H224.586ZM242.307 206.122L241.797 203.266L248.665 201.974C249.889 201.725 250.886 201.362 251.657 200.886C252.427 200.387 253.017 199.73 253.425 198.914C253.855 198.098 254.161 197.101 254.343 195.922C254.524 194.721 254.626 193.293 254.649 191.638C254.671 189.983 254.683 188.068 254.683 185.892H258.287C258.287 188.249 258.241 190.357 258.151 192.216C258.06 194.075 257.856 195.718 257.539 197.146C257.221 198.551 256.723 199.764 256.043 200.784C255.363 201.804 254.422 202.654 253.221 203.334C252.042 204.014 250.535 204.524 248.699 204.864L242.307 206.122ZM247.645 202.484L243.361 185.892H246.999L251.113 202.484H247.645ZM268.479 205.068L268.819 202.28C270.61 202.665 272.038 202.631 273.103 202.178C274.168 201.725 274.928 200.897 275.381 199.696C275.857 198.472 276.072 196.908 276.027 195.004C276.004 193.395 275.8 192.125 275.415 191.196C275.052 190.244 274.542 189.564 273.885 189.156C273.25 188.748 272.491 188.544 271.607 188.544C270.814 188.544 270.134 188.714 269.567 189.054C269 189.371 268.547 189.813 268.207 190.38C267.867 190.947 267.629 191.581 267.493 192.284L266.575 190.584C267.006 188.861 267.742 187.615 268.785 186.844C269.85 186.051 271.018 185.654 272.287 185.654C273.352 185.654 274.316 185.835 275.177 186.198C276.061 186.538 276.82 187.082 277.455 187.83C278.09 188.578 278.577 189.553 278.917 190.754C279.28 191.933 279.472 193.349 279.495 195.004C279.54 197.565 279.132 199.685 278.271 201.362C277.41 203.039 276.152 204.207 274.497 204.864C272.842 205.521 270.836 205.589 268.479 205.068ZM261.679 205L264.127 191.842L261.475 185.892H265.215L267.561 191.978L265.317 205H261.679ZM293.003 205L299.361 188.68H289.127V185.892H302.999V188.918L296.641 205H293.003ZM289.127 188.68V180.622H292.391V188.68H289.127ZM305.662 205V202.212H310.558C311.669 202.212 312.575 201.997 313.278 201.566C313.981 201.113 314.502 200.467 314.842 199.628C315.182 198.767 315.352 197.758 315.352 196.602V194.29C315.352 193.111 315.182 192.103 314.842 191.264C314.502 190.425 313.981 189.791 313.278 189.36C312.575 188.907 311.669 188.68 310.558 188.68H305.662V185.892H311.442C313.074 185.892 314.445 186.232 315.556 186.912C316.689 187.592 317.539 188.578 318.106 189.87C318.695 191.139 318.99 192.669 318.99 194.46V196.432C318.99 198.245 318.695 199.798 318.106 201.09C317.539 202.359 316.689 203.334 315.556 204.014C314.445 204.671 313.074 205 311.442 205H305.662ZM331.555 205V192.08C331.555 190.811 331.272 189.927 330.705 189.428C330.161 188.929 329.413 188.68 328.461 188.68H322.103V185.892H329.379C330.513 185.892 331.51 186.107 332.371 186.538C333.255 186.946 333.935 187.615 334.411 188.544C334.91 189.473 335.159 190.709 335.159 192.25V205H331.555ZM322.103 205V202.212H337.505V205H322.103ZM141.266 241.86V239.038V233.87L140.858 229.892H144.462L144.904 233.87V239.038L144.87 241.18L141.266 241.86ZM148.517 249V246.212H154.025V235.57C154.025 234.527 153.821 233.791 153.413 233.36C153.005 232.929 152.438 232.669 151.713 232.578L149.401 232.238L149.877 229.518L153.379 229.994C154.761 230.198 155.815 230.776 156.541 231.728C157.266 232.657 157.629 233.904 157.629 235.468V249H148.517ZM163.716 249.34L161.234 229.892H164.702L166.674 246.28C168.397 246.167 169.881 245.849 171.128 245.328C172.397 244.807 173.44 244.093 174.256 243.186C175.072 242.279 175.673 241.169 176.058 239.854C176.443 238.517 176.636 236.998 176.636 235.298L176.568 229.892H180.206L180.24 235.128C180.263 238.301 179.673 240.942 178.472 243.05C177.293 245.158 175.48 246.745 173.032 247.81C170.584 248.853 167.479 249.363 163.716 249.34ZM165.518 241.826L164.668 239.446C165.801 239.015 166.685 238.517 167.32 237.95C167.955 237.361 168.397 236.601 168.646 235.672C168.918 234.72 169.065 233.519 169.088 232.068V229.96H172.522V232C172.499 233.655 172.261 235.105 171.808 236.352C171.377 237.599 170.652 238.664 169.632 239.548C168.635 240.432 167.263 241.191 165.518 241.826ZM191.037 255.8V233.87L190.629 229.892H194.233L194.675 233.87V255.8H191.037ZM199.172 241.86V239.038V233.87L198.764 229.892H202.368L202.81 233.87V239.038L202.776 241.18L199.172 241.86ZM215.909 249V236.08C215.909 234.811 215.625 233.927 215.059 233.428C214.515 232.929 213.767 232.68 212.815 232.68H206.457V229.892H213.733C214.866 229.892 215.863 230.107 216.725 230.538C217.609 230.946 218.289 231.615 218.765 232.544C219.263 233.473 219.513 234.709 219.513 236.25V249H215.909ZM206.457 249V246.212H221.859V249H206.457ZM232.956 235.128L232.072 233.564C232.979 233.02 233.659 232.419 234.112 231.762C234.566 231.082 234.792 230.255 234.792 229.28L234.452 226.832L235.948 228.702C235.722 228.906 235.495 229.065 235.268 229.178C235.042 229.291 234.781 229.348 234.486 229.348C233.942 229.348 233.466 229.178 233.058 228.838C232.65 228.475 232.446 227.999 232.446 227.41C232.446 226.73 232.639 226.209 233.024 225.846C233.41 225.461 233.897 225.268 234.486 225.268C235.28 225.268 235.88 225.574 236.288 226.186C236.719 226.775 236.934 227.625 236.934 228.736C236.934 230.164 236.594 231.411 235.914 232.476C235.257 233.519 234.271 234.403 232.956 235.128ZM239.552 235.128L238.668 233.564C239.575 233.02 240.255 232.419 240.708 231.762C241.162 231.082 241.388 230.255 241.388 229.28L241.048 226.832L242.544 228.702C242.318 228.906 242.091 229.065 241.864 229.178C241.638 229.291 241.377 229.348 241.082 229.348C240.538 229.348 240.062 229.178 239.654 228.838C239.246 228.475 239.042 227.999 239.042 227.41C239.042 226.73 239.235 226.209 239.62 225.846C240.006 225.461 240.493 225.268 241.082 225.268C241.876 225.268 242.476 225.574 242.884 226.186C243.315 226.775 243.53 227.625 243.53 228.736C243.53 230.164 243.19 231.411 242.51 232.476C241.853 233.519 240.867 234.403 239.552 235.128ZM250.603 249L256.961 232.68H246.727V229.892H260.599V232.918L254.241 249H250.603ZM246.727 232.68V224.622H249.991V232.68H246.727ZM272.51 249V236.08C272.51 234.811 272.238 233.927 271.694 233.428C271.15 232.929 270.402 232.68 269.45 232.68H263.16V229.892H270.368C271.501 229.892 272.498 230.107 273.36 230.538C274.221 230.946 274.901 231.615 275.4 232.544C275.898 233.473 276.148 234.709 276.148 236.25V249H272.51ZM282.047 249.34L279.769 229.892H283.407L285.243 246.076C286.445 245.963 287.521 245.725 288.473 245.362C289.425 244.977 290.23 244.455 290.887 243.798C291.567 243.118 292.077 242.291 292.417 241.316C292.757 240.319 292.905 239.151 292.859 237.814V236.862C292.859 236.069 292.723 235.355 292.451 234.72C292.179 234.085 291.749 233.575 291.159 233.19C290.57 232.782 289.822 232.555 288.915 232.51L287.249 232.408L287.521 229.552L289.493 229.688C290.808 229.756 291.964 230.051 292.961 230.572C293.981 231.071 294.786 231.807 295.375 232.782C295.987 233.734 296.316 234.958 296.361 236.454L296.395 237.406C296.463 239.469 296.157 241.237 295.477 242.71C294.82 244.183 293.845 245.396 292.553 246.348C291.261 247.277 289.72 247.991 287.929 248.49C286.139 248.966 284.178 249.249 282.047 249.34ZM300.01 249V233.87L299.602 229.892H303.206L303.648 233.87V249H300.01ZM308.145 241.86V239.038V233.87L307.737 229.892H311.341L311.783 233.87V239.038L311.749 241.18L308.145 241.86ZM315.395 249V246.212H320.903V235.57C320.903 234.527 320.699 233.791 320.291 233.36C319.883 232.929 319.317 232.669 318.591 232.578L316.279 232.238L316.755 229.518L320.257 229.994C321.64 230.198 322.694 230.776 323.419 231.728C324.145 232.657 324.507 233.904 324.507 235.468V249H315.395ZM339.979 249V236.08C339.979 234.811 339.696 233.927 339.129 233.428C338.585 232.929 337.837 232.68 336.885 232.68H328.555V229.892H337.803C338.936 229.892 339.934 230.107 340.795 230.538C341.679 230.946 342.359 231.615 342.835 232.544C343.334 233.473 343.583 234.709 343.583 236.25V249H339.979ZM328.453 249V239.786L328.963 237.508H332.057V239.786V249H328.453ZM349.894 235.332C349.123 235.332 348.523 235.026 348.092 234.414C347.661 233.802 347.446 232.952 347.446 231.864C347.446 230.436 347.775 229.189 348.432 228.124C349.112 227.059 350.109 226.175 351.424 225.472L352.308 227.036C351.401 227.58 350.721 228.181 350.268 228.838C349.815 229.495 349.588 230.323 349.588 231.32L349.894 233.768L348.432 231.864C348.659 231.66 348.885 231.513 349.112 231.422C349.339 231.309 349.599 231.252 349.894 231.252C350.438 231.252 350.914 231.422 351.322 231.762C351.73 232.079 351.934 232.555 351.934 233.19C351.934 233.847 351.741 234.369 351.356 234.754C350.971 235.139 350.483 235.332 349.894 235.332ZM356.49 235.332C355.719 235.332 355.119 235.026 354.688 234.414C354.257 233.802 354.042 232.952 354.042 231.864C354.042 230.436 354.371 229.189 355.028 228.124C355.708 227.059 356.705 226.175 358.02 225.472L358.904 227.036C357.997 227.58 357.317 228.181 356.864 228.838C356.411 229.495 356.184 230.323 356.184 231.32L356.49 233.768L355.028 231.864C355.255 231.66 355.481 231.513 355.708 231.422C355.935 231.309 356.195 231.252 356.49 231.252C357.034 231.252 357.51 231.422 357.918 231.762C358.326 232.079 358.53 232.555 358.53 233.19C358.53 233.847 358.337 234.369 357.952 234.754C357.567 235.139 357.079 235.332 356.49 235.332ZM122.896 293V280.08C122.896 278.811 122.624 277.927 122.08 277.428C121.536 276.929 120.788 276.68 119.836 276.68H113.546V273.892H120.754C121.888 273.892 122.885 274.107 123.746 274.538C124.608 274.946 125.288 275.615 125.786 276.544C126.285 277.473 126.534 278.709 126.534 280.25V293H122.896ZM131.006 293V277.87L130.598 273.892H134.202L134.644 277.87V293H131.006ZM149.613 293L138.495 273.892H142.167L153.285 293H149.613ZM137.951 293V290.212H151.143L152.197 293H137.951ZM148.355 285.214L146.315 282.086L149.749 273.892H153.353L148.355 285.214ZM156.078 294.122L155.568 291.266L162.436 289.974C163.66 289.725 164.657 289.362 165.428 288.886C166.199 288.387 166.788 287.73 167.196 286.914C167.627 286.098 167.933 285.101 168.114 283.922C168.295 282.721 168.397 281.293 168.42 279.638C168.443 277.983 168.454 276.068 168.454 273.892H172.058C172.058 276.249 172.013 278.357 171.922 280.216C171.831 282.075 171.627 283.718 171.31 285.146C170.993 286.551 170.494 287.764 169.814 288.784C169.134 289.804 168.193 290.654 166.992 291.334C165.813 292.014 164.306 292.524 162.47 292.864L156.078 294.122ZM161.416 290.484L157.132 273.892H160.77L164.884 290.484H161.416ZM178.851 293L185.209 276.68H174.975V273.892H188.847V276.918L182.489 293H178.851ZM174.975 276.68V268.622H178.239V276.68H174.975ZM201.036 293.34L198.554 273.892H202.022L203.994 290.28C205.717 290.167 207.202 289.849 208.448 289.328C209.718 288.807 210.76 288.093 211.576 287.186C212.392 286.279 212.993 285.169 213.378 283.854C213.764 282.517 213.956 280.998 213.956 279.298L213.888 273.892H217.526L217.56 279.128C217.583 282.301 216.994 284.942 215.792 287.05C214.614 289.158 212.8 290.745 210.352 291.81C207.904 292.853 204.799 293.363 201.036 293.34ZM202.838 285.826L201.988 283.446C203.122 283.015 204.006 282.517 204.64 281.95C205.275 281.361 205.717 280.601 205.966 279.672C206.238 278.72 206.386 277.519 206.408 276.068V273.96H209.842V276C209.82 277.655 209.582 279.105 209.128 280.352C208.698 281.599 207.972 282.664 206.952 283.548C205.955 284.432 204.584 285.191 202.838 285.826ZM221.551 285.86V283.038V277.87L221.143 273.892H224.747L225.189 277.87V283.038L225.155 285.18L221.551 285.86ZM247.508 293V280.08C247.508 278.811 247.225 277.927 246.658 277.428C246.114 276.929 245.366 276.68 244.414 276.68H236.084V273.892H245.332C246.466 273.892 247.463 274.107 248.324 274.538C249.208 274.946 249.888 275.615 250.364 276.544C250.863 277.473 251.112 278.709 251.112 280.25V293H247.508ZM235.982 293V283.786L236.492 281.508H239.586V283.786V293H235.982ZM263.611 293V280.08C263.611 278.811 263.339 277.927 262.795 277.428C262.251 276.929 261.503 276.68 260.551 276.68H254.261V273.892H261.469C262.603 273.892 263.6 274.107 264.461 274.538C265.323 274.946 266.003 275.615 266.501 276.544C267 277.473 267.249 278.709 267.249 280.25V293H263.611ZM280.323 293V280.08C280.323 278.811 280.039 277.927 279.473 277.428C278.929 276.929 278.181 276.68 277.229 276.68H270.871V273.892H278.147C279.28 273.892 280.277 274.107 281.139 274.538C282.023 274.946 282.703 275.615 283.179 276.544C283.677 277.473 283.927 278.709 283.927 280.25V293H280.323ZM270.871 293V290.212H286.273V293H270.871ZM288.592 294.122L288.082 291.266L294.95 289.974C296.174 289.725 297.171 289.362 297.942 288.886C298.712 288.387 299.302 287.73 299.71 286.914C300.14 286.098 300.446 285.101 300.628 283.922C300.809 282.721 300.911 281.293 300.934 279.638C300.956 277.983 300.968 276.068 300.968 273.892H304.572C304.572 276.249 304.526 278.357 304.436 280.216C304.345 282.075 304.141 283.718 303.824 285.146C303.506 286.551 303.008 287.764 302.328 288.784C301.648 289.804 300.707 290.654 299.506 291.334C298.327 292.014 296.82 292.524 294.984 292.864L288.592 294.122ZM293.93 290.484L289.646 273.892H293.284L297.398 290.484H293.93ZM319.592 293V280.08C319.592 278.811 319.309 277.927 318.742 277.428C318.198 276.929 317.45 276.68 316.498 276.68H308.168V273.892H317.416C318.55 273.892 319.547 274.107 320.408 274.538C321.292 274.946 321.972 275.615 322.448 276.544C322.947 277.473 323.196 278.709 323.196 280.25V293H319.592ZM308.066 293V283.786L308.576 281.508H311.67V283.786V293H308.066ZM334.342 285.86V283.038V277.87L333.934 273.892H337.538L337.98 277.87V283.038L337.946 285.18L334.342 285.86ZM343.939 293.34L341.967 276.68L345.401 274.946L347.135 290.076C348.087 289.985 348.959 289.838 349.753 289.634C350.546 289.407 351.249 289.09 351.861 288.682C352.495 288.274 353.017 287.764 353.425 287.152C353.855 286.54 354.173 285.803 354.377 284.942C354.581 284.058 354.66 283.038 354.615 281.882V280.964C354.615 280.125 354.479 279.389 354.207 278.754C353.935 278.119 353.538 277.621 353.017 277.258C352.495 276.873 351.861 276.68 351.113 276.68H341.967L341.627 273.892H351.419C353.549 273.892 355.181 274.527 356.315 275.796C357.471 277.065 358.083 278.765 358.151 280.896L358.185 281.95C358.253 284.035 357.947 285.792 357.267 287.22C356.587 288.648 355.601 289.793 354.309 290.654C353.017 291.515 351.487 292.161 349.719 292.592C347.951 293 346.024 293.249 343.939 293.34ZM373.826 293V280.42C373.826 277.927 372.794 276.68 370.732 276.68H361.892V273.892H371.65C372.828 273.892 373.848 274.13 374.71 274.606C375.594 275.082 376.262 275.819 376.716 276.816C377.192 277.791 377.43 279.049 377.43 280.59V293H373.826ZM361.892 293V275.354H365.53V293H361.892ZM381.889 285.86V283.038V277.87L381.481 273.892H385.085L385.527 277.87V283.038L385.493 285.18L381.889 285.86ZM154.565 337.51L154.225 334.994C155.132 334.903 155.823 334.722 156.299 334.45C156.775 334.155 157.104 333.747 157.285 333.226C157.466 332.682 157.557 332.013 157.557 331.22V317.892H166.737C167.87 317.892 168.868 318.107 169.729 318.538C170.59 318.946 171.27 319.615 171.769 320.544C172.268 321.473 172.517 322.709 172.517 324.25V337H168.879V324.08C168.879 322.811 168.607 321.927 168.063 321.428C167.519 320.929 166.771 320.68 165.819 320.68H161.161V330.778C161.161 332.297 160.923 333.532 160.447 334.484C159.994 335.413 159.28 336.116 158.305 336.592C157.353 337.068 156.106 337.374 154.565 337.51ZM178.371 337.34L176.093 317.892H179.731L181.567 334.076C182.768 333.963 183.845 333.725 184.797 333.362C185.749 332.977 186.553 332.455 187.211 331.798C187.891 331.118 188.401 330.291 188.741 329.316C189.081 328.319 189.228 327.151 189.183 325.814V324.862C189.183 324.069 189.047 323.355 188.775 322.72C188.503 322.085 188.072 321.575 187.483 321.19C186.893 320.782 186.145 320.555 185.239 320.51L183.573 320.408L183.845 317.552L185.817 317.688C187.131 317.756 188.287 318.051 189.285 318.572C190.305 319.071 191.109 319.807 191.699 320.782C192.311 321.734 192.639 322.958 192.685 324.454L192.719 325.406C192.787 327.469 192.481 329.237 191.801 330.71C191.143 332.183 190.169 333.396 188.877 334.348C187.585 335.277 186.043 335.991 184.253 336.49C182.462 336.966 180.501 337.249 178.371 337.34ZM199.121 337L205.479 320.68H195.245V317.892H209.117V320.918L202.759 337H199.121ZM195.245 320.68V312.622H198.509V320.68H195.245ZM224.428 337V324.42C224.428 321.927 223.397 320.68 221.334 320.68H212.494V317.892H222.252C223.431 317.892 224.451 318.13 225.312 318.606C226.196 319.082 226.865 319.819 227.318 320.816C227.794 321.791 228.032 323.049 228.032 324.59V337H224.428ZM212.494 337V319.354H216.132V337H212.494ZM232.491 337V321.87L232.083 317.892H235.687L236.129 321.87V337H232.491ZM246.814 337.068L247.154 334.28C248.945 334.665 250.373 334.631 251.438 334.178C252.503 333.725 253.263 332.897 253.716 331.696C254.192 330.472 254.407 328.908 254.362 327.004C254.339 325.395 254.135 324.125 253.75 323.196C253.387 322.244 252.877 321.564 252.22 321.156C251.585 320.748 250.826 320.544 249.942 320.544C249.149 320.544 248.469 320.714 247.902 321.054C247.335 321.371 246.882 321.813 246.542 322.38C246.202 322.947 245.964 323.581 245.828 324.284L244.91 322.584C245.341 320.861 246.077 319.615 247.12 318.844C248.185 318.051 249.353 317.654 250.622 317.654C251.687 317.654 252.651 317.835 253.512 318.198C254.396 318.538 255.155 319.082 255.79 319.83C256.425 320.578 256.912 321.553 257.252 322.754C257.615 323.933 257.807 325.349 257.83 327.004C257.875 329.565 257.467 331.685 256.606 333.362C255.745 335.039 254.487 336.207 252.832 336.864C251.177 337.521 249.171 337.589 246.814 337.068ZM240.014 337L242.462 323.842L239.81 317.892H243.55L245.896 323.978L243.652 337H240.014ZM279.566 337V324.08C279.566 322.811 279.283 321.927 278.716 321.428C278.172 320.929 277.424 320.68 276.472 320.68H268.142V317.892H277.39C278.523 317.892 279.521 318.107 280.382 318.538C281.266 318.946 281.946 319.615 282.422 320.544C282.921 321.473 283.17 322.709 283.17 324.25V337H279.566ZM268.04 337V327.786L268.55 325.508H271.644V327.786V337H268.04ZM295.669 337V324.08C295.669 322.811 295.397 321.927 294.853 321.428C294.309 320.929 293.561 320.68 292.609 320.68H286.319V317.892H293.527C294.66 317.892 295.658 318.107 296.519 318.538C297.38 318.946 298.06 319.615 298.559 320.544C299.058 321.473 299.307 322.709 299.307 324.25V337H295.669ZM303.778 329.86V327.038V321.87L303.37 317.892H306.974L307.416 321.87V327.038L307.382 329.18L303.778 329.86ZM322.385 337L311.267 317.892H314.939L326.057 337H322.385ZM310.723 337V334.212H323.915L324.969 337H310.723ZM321.127 329.214L319.087 326.086L322.521 317.892H326.125L321.127 329.214ZM328.851 338.122L328.341 335.266L335.209 333.974C336.433 333.725 337.43 333.362 338.201 332.886C338.971 332.387 339.561 331.73 339.969 330.914C340.399 330.098 340.705 329.101 340.887 327.922C341.068 326.721 341.17 325.293 341.193 323.638C341.215 321.983 341.227 320.068 341.227 317.892H344.831C344.831 320.249 344.785 322.357 344.695 324.216C344.604 326.075 344.4 327.718 344.083 329.146C343.765 330.551 343.267 331.764 342.587 332.784C341.907 333.804 340.966 334.654 339.765 335.334C338.586 336.014 337.079 336.524 335.243 336.864L328.851 338.122ZM334.189 334.484L329.905 317.892H333.543L337.657 334.484H334.189Z" fill="#FEFEFE"/>
</g>
<defs>
<clipPath id="clip0_105_4887">
<rect width="501" height="500" fill="white"/>
</clipPath>
</defs>
</svg>
